<svg width="24" height="30" viewBox="0 0 24 30" fill="none" xmlns="http://www.w3.org/2000/svg">
<path d="M22.6654 16.0005C22.6654 22.6672 17.9987 26.0005 12.452 27.9339C12.1616 28.0323 11.8461 28.0276 11.5587 27.9205C5.9987 26.0005 1.33203 22.6672 1.33203 16.0005V6.66718C1.33203 6.31356 1.47251 5.97442 1.72256 5.72438C1.9726 5.47433 2.31174 5.33385 2.66536 5.33385C5.33203 5.33385 8.66536 3.73385 10.9854 1.70718C11.2678 1.46585 11.6272 1.33325 11.9987 1.33325C12.3702 1.33325 12.7296 1.46585 13.012 1.70718C15.3454 3.74718 18.6654 5.33385 21.332 5.33385C21.6857 5.33385 22.0248 5.47433 22.2748 5.72438C22.5249 5.97442 22.6654 6.31356 22.6654 6.66718V16.0005Z" stroke="#B34B0C" stroke-width="2.66667" stroke-linecap="round" stroke-linejoin="round"/>
</svg>
