<svg width="736" height="680" viewBox="0 0 736 680" fill="none" xmlns="http://www.w3.org/2000/svg">
<path d="M736 0H162.029C57.5429 4.84725 22.2529 74.0937 13.2574 83.0957C6.06096 90.2974 -135.053 435.098 -204.71 606.599C-215.782 664.766 -183.951 678.615 -168.036 680H519.081C558.938 679.446 620.107 580.285 638.098 544.277H-21.3406C31.2484 382.933 98.3686 376.008 101.136 375.316C103.351 374.762 376.076 375.085 512.161 375.316C548.143 369.776 600.732 276.293 613.187 238.9H103.904C131.583 150.957 156.493 123.259 201.471 117.719H631.178C658.303 119.381 712.362 39.9321 736 0Z" fill="#B34B0C" fill-opacity="0.2"/>
</svg>
