<svg width="16" height="15" viewBox="0 0 16 15" fill="none" xmlns="http://www.w3.org/2000/svg">
<path d="M12.6318 1.3335L14.6518 12.7015C14.6744 12.8354 14.6556 12.9729 14.5979 13.0958C14.5403 13.2187 14.4464 13.3211 14.329 13.3892C14.2116 13.4574 14.0762 13.488 13.9408 13.4771C13.8055 13.4662 13.6767 13.4142 13.5718 13.3282L8.79843 9.7455C8.568 9.57334 8.28807 9.48033 8.00043 9.48033C7.71279 9.48033 7.43286 9.57334 7.20243 9.7455L2.4211 13.3268C2.31619 13.4127 2.18758 13.4646 2.05242 13.4756C1.91727 13.4865 1.78199 13.4559 1.66465 13.388C1.5473 13.32 1.45346 13.2179 1.39565 13.0953C1.33784 12.9726 1.31881 12.8352 1.3411 12.7015L3.35976 1.3335" stroke="#B34B0C" stroke-width="2.66667" stroke-linecap="round" stroke-linejoin="round"/>
</svg>
