<svg width="289" height="37" viewBox="0 0 289 37" fill="none" xmlns="http://www.w3.org/2000/svg">
<path d="M32.1318 30.6953L34.8838 24.5352H36.2754L31.124 36.1191H29.7158L31.6836 31.7031H31.2197L28.0518 24.5352H29.5078L32.1318 30.6953ZM94.2158 24.3438C95.005 24.3438 95.6878 24.5302 96.2637 24.9033C96.8503 25.2767 97.304 25.7838 97.624 26.4238C97.9546 27.0531 98.1201 27.7734 98.1201 28.584C98.1201 29.3945 97.9546 30.1199 97.624 30.7598C97.304 31.389 96.8503 31.8854 96.2637 32.248C95.6771 32.6105 94.9893 32.792 94.2002 32.792C93.5495 32.792 92.973 32.6583 92.4717 32.3916C91.9812 32.1249 91.6025 31.7514 91.3359 31.2715V36.1191H89.9922V24.5352H91.208L91.3203 25.8477C91.4909 25.5918 91.7091 25.3518 91.9756 25.1279C92.2423 24.8933 92.5632 24.706 92.9365 24.5674C93.3097 24.4182 93.7361 24.3438 94.2158 24.3438ZM137.71 30.6953L140.462 24.5352H141.854L136.702 36.1191H135.294L137.262 31.7031H136.798L133.63 24.5352H135.086L137.71 30.6953ZM36.6299 34.5674H35.7021L36.6299 31.0312H38.0215L36.6299 34.5674ZM82.708 34.5674H81.7803L82.708 31.0312H84.0996L82.708 34.5674ZM142.208 34.5674H141.28L142.208 31.0312H143.6L142.208 34.5674ZM8.12793 32.5996H6.91211L6.7998 31.2715C6.62914 31.5382 6.41022 31.7888 6.14355 32.0234C5.8769 32.2474 5.55689 32.4347 5.18359 32.584C4.81033 32.7226 4.37822 32.792 3.8877 32.792C3.10917 32.792 2.42643 32.6106 1.83984 32.248C1.25318 31.8747 0.799492 31.3675 0.479492 30.7275C0.159574 30.0876 1.9573e-05 29.3623 0 28.5518C0 27.7411 0.159535 27.0209 0.479492 26.3916C0.799488 25.7516 1.25319 25.2504 1.83984 24.8877C2.43718 24.525 3.12563 24.3438 3.9043 24.3438C4.56535 24.3438 5.14132 24.4766 5.63184 24.7432C6.13314 25.0098 6.51752 25.3833 6.78418 25.8633V21.0801H8.12793V32.5996ZM13.6475 24.3438C14.3939 24.3438 15.0124 24.4825 15.5029 24.7598C16.0042 25.0264 16.3777 25.4049 16.623 25.8955C16.8684 26.3755 16.9912 26.9462 16.9912 27.6074V32.5996H15.791L15.7109 31.1758C15.6043 31.3997 15.4655 31.6128 15.2949 31.8154C15.1349 32.0074 14.9427 32.1778 14.7188 32.3271C14.4948 32.4658 14.2392 32.5787 13.9512 32.6641C13.6739 32.7494 13.3538 32.792 12.9912 32.792C12.3408 32.792 11.7966 32.6799 11.3594 32.4561C10.9221 32.2214 10.5961 31.9172 10.3828 31.5439C10.1695 31.16 10.0635 30.7438 10.0635 30.2959C10.0635 29.7519 10.2022 29.2933 10.4795 28.9199C10.7674 28.536 11.1669 28.2477 11.6787 28.0557C12.2014 27.853 12.8155 27.752 13.5195 27.752H15.6475C15.6475 27.2508 15.5671 26.8345 15.4072 26.5039C15.2579 26.1626 15.034 25.906 14.7354 25.7354C14.4474 25.5647 14.0846 25.4795 13.6475 25.4795C13.1356 25.4795 12.6926 25.6074 12.3193 25.8633C11.946 26.1193 11.7162 26.4987 11.6309 27H10.2549C10.3189 26.424 10.5111 25.9436 10.8311 25.5596C11.1617 25.1649 11.5778 24.8667 12.0791 24.6641C12.5804 24.4507 13.1035 24.3438 13.6475 24.3438ZM61.7324 24.3438C62.5215 24.3438 63.1885 24.5201 63.7324 24.8721C64.2868 25.224 64.7082 25.6879 64.9961 26.2637C65.2947 26.829 65.4443 27.4531 65.4443 28.1357V28.4717C65.4443 28.589 65.4384 28.7228 65.4277 28.8721H59.1455C59.1694 29.4354 59.2846 29.9152 59.4922 30.3115C59.7374 30.7593 60.0517 31.0953 60.4355 31.3193C60.8302 31.5433 61.2522 31.6553 61.7002 31.6553C62.2652 31.6552 62.7292 31.5332 63.0918 31.2881C63.4651 31.0321 63.7316 30.6903 63.8916 30.2637H65.2197C65.0917 30.7436 64.8678 31.1756 64.5479 31.5596C64.2279 31.9436 63.8276 32.2477 63.3477 32.4717C62.8784 32.6849 62.3293 32.792 61.7002 32.792C60.9429 32.792 60.2703 32.6157 59.6836 32.2637C59.1078 31.9118 58.6548 31.421 58.3242 30.792C57.9936 30.152 57.8281 29.41 57.8281 28.5674C57.8282 27.7143 57.9877 26.973 58.3076 26.3438C58.6382 25.7146 59.0971 25.2241 59.6836 24.8721C60.2809 24.5201 60.9644 24.3438 61.7324 24.3438ZM70.5381 24.3438C71.2846 24.3438 71.903 24.4825 72.3936 24.7598C72.8949 25.0264 73.2683 25.4049 73.5137 25.8955C73.759 26.3755 73.8818 26.9462 73.8818 27.6074V32.5996H72.6816L72.6016 31.1758C72.4949 31.3997 72.3562 31.6128 72.1855 31.8154C72.0255 32.0074 71.8334 32.1778 71.6094 32.3271C71.3854 32.4658 71.1298 32.5787 70.8418 32.6641C70.5645 32.7494 70.2444 32.792 69.8818 32.792C69.2314 32.792 68.6873 32.6799 68.25 32.4561C67.8127 32.2214 67.4868 31.9172 67.2734 31.5439C67.0602 31.16 66.9541 30.7438 66.9541 30.2959C66.9541 29.7519 67.0928 29.2933 67.3701 28.9199C67.6581 28.536 68.0575 28.2477 68.5693 28.0557C69.092 27.853 69.7062 27.752 70.4102 27.752H72.5381C72.5381 27.2508 72.4578 26.8345 72.2979 26.5039C72.1485 26.1626 71.9246 25.906 71.626 25.7354C71.3381 25.5647 70.9752 25.4795 70.5381 25.4795C70.0262 25.4795 69.5832 25.6074 69.21 25.8633C68.8366 26.1193 68.6068 26.4987 68.5215 27H67.1455C67.2095 26.424 67.4017 25.9436 67.7217 25.5596C68.0523 25.1649 68.4685 24.8667 68.9697 24.6641C69.4711 24.4507 69.9941 24.3438 70.5381 24.3438ZM103.64 24.3438C104.408 24.3438 105.085 24.5201 105.672 24.8721C106.269 25.2134 106.739 25.7039 107.08 26.3438C107.432 26.973 107.607 27.7143 107.607 28.5674C107.607 29.4206 107.432 30.1677 107.08 30.8076C106.728 31.437 106.253 31.9273 105.655 32.2793C105.058 32.6206 104.375 32.792 103.607 32.792C102.861 32.792 102.189 32.6206 101.592 32.2793C100.994 31.9273 100.525 31.4369 100.184 30.8076C99.8423 30.1677 99.6719 29.4265 99.6719 28.584C99.6719 27.7201 99.8423 26.9731 100.184 26.3438C100.536 25.7039 101.01 25.2134 101.607 24.8721C102.215 24.5201 102.893 24.3438 103.64 24.3438ZM110.692 29.2236C110.692 30.0234 110.868 30.6259 111.22 31.0312C111.572 31.4366 112.068 31.6396 112.708 31.6396C113.156 31.6396 113.561 31.5326 113.924 31.3193C114.286 31.0954 114.57 30.7812 114.772 30.376C114.986 29.96 115.092 29.4528 115.092 28.8555V24.5352H116.437V32.5996H115.22L115.14 31.1914C114.894 31.6927 114.532 32.088 114.052 32.376C113.572 32.6532 113.028 32.792 112.42 32.792C111.801 32.792 111.257 32.6691 110.788 32.4238C110.33 32.1785 109.972 31.7999 109.716 31.2881C109.47 30.7761 109.348 30.1352 109.348 29.3672V24.5352H110.692V29.2236ZM152.772 24.3438C153.519 24.3438 154.137 24.4825 154.628 24.7598C155.129 25.0264 155.503 25.4049 155.748 25.8955C155.993 26.3755 156.116 26.9462 156.116 27.6074V32.5996H154.916L154.836 31.1758C154.729 31.3997 154.591 31.6128 154.42 31.8154C154.26 32.0074 154.068 32.1778 153.844 32.3271C153.62 32.4658 153.364 32.5787 153.076 32.6641C152.799 32.7494 152.479 32.792 152.116 32.792C151.466 32.792 150.922 32.6799 150.484 32.4561C150.047 32.2214 149.721 31.9172 149.508 31.5439C149.295 31.16 149.189 30.7438 149.188 30.2959C149.188 29.7519 149.327 29.2933 149.604 28.9199C149.892 28.536 150.292 28.2477 150.804 28.0557C151.326 27.853 151.941 27.752 152.645 27.752H154.772C154.772 27.2508 154.692 26.8345 154.532 26.5039C154.383 26.1626 154.159 25.906 153.86 25.7354C153.572 25.5647 153.21 25.4795 152.772 25.4795C152.261 25.4795 151.818 25.6074 151.444 25.8633C151.071 26.1193 150.841 26.4987 150.756 27H149.38C149.444 26.424 149.636 25.9436 149.956 25.5596C150.287 25.1649 150.703 24.8667 151.204 24.6641C151.705 24.4507 152.228 24.3438 152.772 24.3438ZM175.175 32.5996H173.959L173.847 31.2715C173.676 31.5382 173.457 31.7888 173.19 32.0234C172.924 32.2474 172.604 32.4347 172.23 32.584C171.857 32.7226 171.425 32.792 170.935 32.792C170.156 32.792 169.473 32.6106 168.887 32.248C168.3 31.8747 167.846 31.3675 167.526 30.7275C167.206 30.0876 167.047 29.3623 167.047 28.5518C167.047 27.7411 167.206 27.0209 167.526 26.3916C167.846 25.7516 168.3 25.2504 168.887 24.8877C169.484 24.525 170.173 24.3438 170.951 24.3438C171.612 24.3438 172.188 24.4766 172.679 24.7432C173.18 25.0098 173.564 25.3833 173.831 25.8633V21.0801H175.175V32.5996ZM196.358 24.3438C197.126 24.3438 197.804 24.5201 198.391 24.8721C198.988 25.2134 199.458 25.7039 199.799 26.3438C200.151 26.973 200.326 27.7143 200.326 28.5674C200.326 29.4206 200.151 30.1677 199.799 30.8076C199.447 31.437 198.971 31.9273 198.374 32.2793C197.777 32.6206 197.094 32.792 196.326 32.792C195.58 32.792 194.908 32.6206 194.311 32.2793C193.713 31.9273 193.244 31.4369 192.902 30.8076C192.561 30.1677 192.391 29.4265 192.391 28.584C192.391 27.7201 192.561 26.9731 192.902 26.3438C193.254 25.7039 193.729 25.2134 194.326 24.8721C194.934 24.5201 195.612 24.3438 196.358 24.3438ZM213.107 24.3438C213.897 24.3438 214.564 24.5201 215.107 24.8721C215.662 25.224 216.083 25.6879 216.371 26.2637C216.67 26.829 216.819 27.4531 216.819 28.1357V28.4717C216.819 28.589 216.813 28.7228 216.803 28.8721H210.521C210.544 29.4354 210.66 29.9152 210.867 30.3115C211.112 30.7593 211.427 31.0953 211.811 31.3193C212.205 31.5433 212.627 31.6553 213.075 31.6553C213.64 31.6552 214.104 31.5332 214.467 31.2881C214.84 31.0321 215.107 30.6903 215.267 30.2637H216.595C216.467 30.7436 216.243 31.1756 215.923 31.5596C215.603 31.9436 215.203 32.2477 214.723 32.4717C214.253 32.6849 213.704 32.792 213.075 32.792C212.318 32.792 211.645 32.6157 211.059 32.2637C210.483 31.9118 210.03 31.421 209.699 30.792C209.369 30.152 209.203 29.41 209.203 28.5674C209.203 27.7143 209.363 26.973 209.683 26.3438C210.013 25.7146 210.472 25.2241 211.059 24.8721C211.656 24.5201 212.339 24.3438 213.107 24.3438ZM240.827 24.3438C241.595 24.3438 242.273 24.5201 242.859 24.8721C243.457 25.2134 243.926 25.7039 244.268 26.3438C244.619 26.973 244.795 27.7143 244.795 28.5674C244.795 29.4206 244.62 30.1677 244.268 30.8076C243.916 31.437 243.44 31.9273 242.843 32.2793C242.245 32.6206 241.563 32.792 240.795 32.792C240.048 32.792 239.377 32.6206 238.779 32.2793C238.182 31.9273 237.712 31.4369 237.371 30.8076C237.03 30.1677 236.859 29.4265 236.859 28.584C236.859 27.7201 237.03 26.9731 237.371 26.3438C237.723 25.7039 238.198 25.2134 238.795 24.8721C239.403 24.5201 240.081 24.3438 240.827 24.3438ZM250.312 24.3438C251.08 24.3438 251.757 24.5201 252.344 24.8721C252.941 25.2134 253.411 25.7039 253.752 26.3438C254.104 26.973 254.279 27.7143 254.279 28.5674C254.279 29.4206 254.104 30.1677 253.752 30.8076C253.4 31.437 252.924 31.9273 252.327 32.2793C251.73 32.6206 251.047 32.792 250.279 32.792C249.533 32.792 248.861 32.6206 248.264 32.2793C247.666 31.9273 247.197 31.4369 246.855 30.8076C246.514 30.1677 246.344 29.4265 246.344 28.584C246.344 27.7201 246.514 26.9731 246.855 26.3438C247.207 25.7039 247.682 25.2134 248.279 24.8721C248.887 24.5201 249.565 24.3438 250.312 24.3438ZM263.956 32.5996H262.74L262.628 31.2715C262.457 31.5382 262.238 31.7888 261.972 32.0234C261.705 32.2474 261.385 32.4347 261.012 32.584C260.638 32.7226 260.206 32.792 259.716 32.792C258.937 32.792 258.255 32.6106 257.668 32.248C257.081 31.8747 256.628 31.3675 256.308 30.7275C255.988 30.0876 255.828 29.3623 255.828 28.5518C255.828 27.7411 255.988 27.0209 256.308 26.3916C256.628 25.7516 257.081 25.2504 257.668 24.8877C258.265 24.525 258.954 24.3438 259.732 24.3438C260.393 24.3438 260.969 24.4766 261.46 24.7432C261.961 25.0098 262.346 25.3833 262.612 25.8633V21.0801H263.956V32.5996ZM269.011 24.3438C269.875 24.3438 270.574 24.5518 271.107 24.9678C271.641 25.3837 271.955 25.9863 272.051 26.7754H270.724C270.67 26.3703 270.494 26.056 270.195 25.832C269.907 25.5974 269.507 25.4795 268.995 25.4795C268.494 25.4795 268.109 25.5805 267.843 25.7832C267.587 25.9859 267.459 26.2533 267.459 26.584C267.459 26.797 267.529 26.9887 267.667 27.1592C267.816 27.3192 268.03 27.4579 268.308 27.5752C268.596 27.6925 268.947 27.7886 269.363 27.8633C269.897 27.9593 270.382 28.088 270.819 28.248C271.257 28.408 271.608 28.6478 271.875 28.9678C272.152 29.2771 272.291 29.7199 272.291 30.2959C272.291 30.797 272.163 31.2342 271.907 31.6074C271.662 31.9806 271.31 32.274 270.852 32.4873C270.393 32.69 269.854 32.792 269.235 32.792C268.564 32.792 267.977 32.6799 267.476 32.4561C266.985 32.2321 266.59 31.922 266.291 31.5273C266.003 31.1221 265.828 30.6474 265.764 30.1035H267.14C267.193 30.3808 267.305 30.6374 267.476 30.8721C267.646 31.1065 267.875 31.2981 268.163 31.4473C268.462 31.5859 268.824 31.6553 269.251 31.6553C269.624 31.6553 269.933 31.6026 270.179 31.4961C270.424 31.3788 270.606 31.2232 270.724 31.0312C270.851 30.8394 270.915 30.6311 270.915 30.4072C270.915 30.0767 270.835 29.8259 270.675 29.6553C270.525 29.4848 270.301 29.3518 270.003 29.2559C269.704 29.1492 269.342 29.0581 268.915 28.9834C268.563 28.9194 268.216 28.8342 267.875 28.7275C267.534 28.6209 267.229 28.4822 266.963 28.3115C266.696 28.1302 266.483 27.9112 266.323 27.6553C266.174 27.3994 266.1 27.085 266.1 26.7119C266.1 26.2534 266.217 25.848 266.451 25.4961C266.686 25.1335 267.022 24.8501 267.459 24.6475C267.907 24.4448 268.424 24.3438 269.011 24.3438ZM274.706 30.8555C274.973 30.8555 275.192 30.9466 275.362 31.1279C275.533 31.2986 275.618 31.5116 275.618 31.7676C275.618 32.0236 275.533 32.2425 275.362 32.4238C275.192 32.5944 274.973 32.6797 274.706 32.6797C274.44 32.6796 274.215 32.5944 274.034 32.4238C273.864 32.2425 273.778 32.0236 273.778 31.7676C273.778 31.5117 273.864 31.2985 274.034 31.1279C274.215 30.9467 274.44 30.8556 274.706 30.8555ZM20.542 32.5996H19.1982V24.5352H20.542V32.5996ZM27.3135 25.752H26.8184C26.477 25.752 26.1511 25.7995 25.8418 25.8955C25.5326 25.9808 25.255 26.1246 25.0098 26.3271C24.7752 26.5297 24.5888 26.8074 24.4502 27.1592C24.3222 27.5005 24.2578 27.9275 24.2578 28.4395V32.5996H22.9141V24.5352H24.1299L24.2256 26.0713C24.4069 25.7087 24.6368 25.3995 24.9141 25.1436C25.2019 24.8877 25.5431 24.6904 25.9375 24.5518C26.3427 24.4131 26.8017 24.3438 27.3135 24.3438V25.752ZM53.002 24.3438C53.6206 24.3438 54.1595 24.4715 54.6182 24.7275C55.0874 24.9729 55.4451 25.3514 55.6904 25.8633C55.9464 26.3645 56.0742 27.0047 56.0742 27.7832V32.5996H54.7461V27.9277C54.7461 27.1171 54.5807 26.5088 54.25 26.1035C53.9194 25.6983 53.4555 25.4962 52.8584 25.4961C52.4424 25.4961 52.0689 25.608 51.7383 25.832C51.4077 26.0453 51.1461 26.3595 50.9541 26.7754C50.7621 27.1914 50.666 27.7036 50.666 28.3115V32.5996H49.3223V27.9277C49.3223 27.1171 49.1568 26.5088 48.8262 26.1035C48.4955 25.6982 48.026 25.4961 47.418 25.4961C47.0126 25.4961 46.6441 25.608 46.3135 25.832C45.9938 26.0453 45.7378 26.3597 45.5459 26.7754C45.3539 27.1914 45.2578 27.7036 45.2578 28.3115V32.5996H43.9141V24.5352H45.1299L45.21 25.6875C45.466 25.2715 45.8077 24.9466 46.2344 24.7119C46.6717 24.4667 47.1463 24.3438 47.6582 24.3438C48.0741 24.3438 48.4477 24.4022 48.7783 24.5195C49.1194 24.6262 49.418 24.7968 49.6738 25.0312C49.9298 25.2552 50.1379 25.5436 50.2979 25.8955C50.5751 25.405 50.9538 25.0264 51.4336 24.7598C51.9243 24.4824 52.4473 24.3438 53.002 24.3438ZM77.918 24.5352H80.2539V25.6719H77.918V30.168C77.918 30.6688 78.0193 31.01 78.2217 31.1914C78.4243 31.3621 78.782 31.4473 79.2939 31.4473H80.1582V32.5996H78.9102C78.4302 32.5996 78.0141 32.5253 77.6621 32.376C77.3102 32.2267 77.0377 31.9759 76.8457 31.624C76.6644 31.2614 76.5743 30.7758 76.5742 30.168V25.6719H75.166V24.5352H76.5742L76.75 22.584H77.918V24.5352ZM120.008 32.5996H118.664V21.0801H120.008V32.5996ZM124.402 24.5352H126.738V25.6719H124.402V30.168C124.402 30.6688 124.504 31.01 124.706 31.1914C124.909 31.3621 125.266 31.4473 125.778 31.4473H126.643V32.5996H125.395C124.915 32.5996 124.498 32.5253 124.146 32.376C123.795 32.2267 123.522 31.9759 123.33 31.624C123.149 31.2614 123.059 30.7758 123.059 30.168V25.6719H121.65V24.5352H123.059L123.234 22.584H124.402V24.5352ZM132.892 25.752H132.396C132.055 25.752 131.729 25.7995 131.42 25.8955C131.111 25.9808 130.833 26.1246 130.588 26.3271C130.353 26.5297 130.167 26.8074 130.028 27.1592C129.9 27.5005 129.836 27.9275 129.836 28.4395V32.5996H128.492V24.5352H129.708L129.804 26.0713C129.985 25.7087 130.215 25.3995 130.492 25.1436C130.78 24.8877 131.121 24.6904 131.516 24.5518C131.921 24.4131 132.38 24.3438 132.892 24.3438V25.752ZM162.195 24.3438C162.825 24.3438 163.369 24.4716 163.827 24.7275C164.286 24.9728 164.643 25.3514 164.899 25.8633C165.155 26.3645 165.283 27.0047 165.283 27.7832V32.5996H163.939V27.9277C163.939 27.1171 163.758 26.5088 163.396 26.1035C163.044 25.6983 162.542 25.4962 161.892 25.4961C161.444 25.4961 161.043 25.608 160.691 25.832C160.339 26.0454 160.056 26.3594 159.843 26.7754C159.64 27.1807 159.539 27.6879 159.539 28.2959V32.5996H158.195V24.5352H159.411L159.476 25.9434C159.732 25.4422 160.094 25.0527 160.563 24.7754C161.043 24.4875 161.587 24.3438 162.195 24.3438ZM185.28 22.2314H184.576C184.182 22.2314 183.893 22.3117 183.712 22.4717C183.541 22.6317 183.456 22.9142 183.456 23.3193V24.5352H185.488V25.6719H183.456V32.5996H182.112V25.6719H180.88V24.5352H182.112V23.2881C182.112 22.7762 182.198 22.36 182.368 22.04C182.539 21.7094 182.789 21.4687 183.12 21.3193C183.461 21.1594 183.878 21.0801 184.368 21.0801H185.28V22.2314ZM191.501 25.752H191.006C190.665 25.752 190.339 25.7995 190.029 25.8955C189.72 25.9808 189.443 26.1246 189.197 26.3271C188.963 26.5297 188.776 26.8074 188.638 27.1592C188.51 27.5005 188.445 27.9275 188.445 28.4395V32.5996H187.102V24.5352H188.317L188.413 26.0713C188.594 25.7087 188.824 25.3995 189.102 25.1436C189.389 24.8877 189.731 24.6904 190.125 24.5518C190.53 24.4131 190.989 24.3438 191.501 24.3438V25.752ZM207.667 25.6396L203.187 31.4795H207.747V32.5996H201.667V31.4961L206.131 25.6553H201.747V24.5352H207.667V25.6396ZM222.633 24.3438C223.262 24.3438 223.806 24.4716 224.265 24.7275C224.723 24.9728 225.081 25.3514 225.337 25.8633C225.593 26.3645 225.721 27.0047 225.721 27.7832V32.5996H224.377V27.9277C224.377 27.1171 224.196 26.5088 223.833 26.1035C223.481 25.6983 222.98 25.4962 222.329 25.4961C221.881 25.4961 221.481 25.608 221.129 25.832C220.777 26.0454 220.494 26.3594 220.28 26.7754C220.078 27.1807 219.977 27.6879 219.977 28.2959V32.5996H218.633V24.5352H219.849L219.913 25.9434C220.169 25.4422 220.532 25.0527 221.001 24.7754C221.481 24.4875 222.025 24.3438 222.633 24.3438ZM235.687 22.2314H234.982C234.588 22.2314 234.299 22.3117 234.118 22.4717C233.948 22.6317 233.862 22.9142 233.862 23.3193V24.5352H235.895V25.6719H233.862V32.5996H232.519V25.6719H231.286V24.5352H232.519V23.2881C232.519 22.7762 232.604 22.36 232.774 22.04C232.945 21.7094 233.196 21.4687 233.526 21.3193C233.868 21.1594 234.284 21.0801 234.774 21.0801H235.687V22.2314ZM13.6309 28.792C13.1084 28.792 12.6871 28.8555 12.3672 28.9834C12.0472 29.1007 11.8174 29.2721 11.6787 29.4961C11.5403 29.7093 11.4707 29.9544 11.4707 30.2314C11.4707 30.5194 11.5351 30.7701 11.6631 30.9834C11.8017 31.1967 11.999 31.3622 12.2549 31.4795C12.5215 31.5968 12.8366 31.6553 13.1992 31.6553C13.5725 31.6553 13.9084 31.5809 14.207 31.4316C14.5163 31.2717 14.7779 31.0586 14.9912 30.792C15.2045 30.5148 15.364 30.2104 15.4707 29.8799C15.588 29.5493 15.6474 29.2024 15.6475 28.8398V28.792H13.6309ZM70.5215 28.792C69.999 28.792 69.5778 28.8555 69.2578 28.9834C68.9378 29.1007 68.708 29.2721 68.5693 29.4961C68.4309 29.7093 68.3614 29.9544 68.3613 30.2314C68.3613 30.5194 68.4258 30.7701 68.5537 30.9834C68.6923 31.1967 68.8896 31.3622 69.1455 31.4795C69.4122 31.5968 69.7272 31.6553 70.0898 31.6553C70.4631 31.6553 70.799 31.5809 71.0977 31.4316C71.4069 31.2717 71.6685 31.0586 71.8818 30.792C72.0951 30.5148 72.2547 30.2104 72.3613 29.8799C72.4786 29.5493 72.5381 29.2024 72.5381 28.8398V28.792H70.5215ZM152.756 28.792C152.233 28.792 151.812 28.8555 151.492 28.9834C151.172 29.1007 150.942 29.2721 150.804 29.4961C150.665 29.7093 150.596 29.9544 150.596 30.2314C150.596 30.5194 150.66 30.7701 150.788 30.9834C150.927 31.1967 151.124 31.3622 151.38 31.4795C151.647 31.5968 151.962 31.6553 152.324 31.6553C152.697 31.6553 153.033 31.5809 153.332 31.4316C153.641 31.2717 153.903 31.0586 154.116 30.792C154.329 30.5148 154.489 30.2104 154.596 29.8799C154.713 29.5493 154.772 29.2024 154.772 28.8398V28.792H152.756ZM103.64 25.4961C103.192 25.4961 102.765 25.613 102.359 25.8477C101.965 26.0717 101.645 26.4135 101.399 26.8721C101.165 27.3199 101.048 27.8851 101.048 28.5674C101.048 29.2394 101.165 29.805 101.399 30.2637C101.645 30.7223 101.96 31.069 102.344 31.3037C102.738 31.5277 103.165 31.6396 103.624 31.6396C104.082 31.6396 104.509 31.5275 104.903 31.3037C105.298 31.0691 105.618 30.7222 105.863 30.2637C106.109 29.805 106.231 29.2394 106.231 28.5674C106.231 27.8849 106.109 27.32 105.863 26.8721C105.629 26.4135 105.314 26.0717 104.92 25.8477C104.536 25.613 104.109 25.4961 103.64 25.4961ZM196.358 25.4961C195.91 25.4961 195.483 25.613 195.078 25.8477C194.684 26.0717 194.363 26.4135 194.118 26.8721C193.884 27.3199 193.767 27.8851 193.767 28.5674C193.767 29.2394 193.884 29.805 194.118 30.2637C194.363 30.7223 194.678 31.069 195.062 31.3037C195.457 31.5277 195.884 31.6396 196.343 31.6396C196.801 31.6396 197.228 31.5275 197.622 31.3037C198.017 31.0691 198.337 30.7222 198.582 30.2637C198.827 29.805 198.95 29.2394 198.95 28.5674C198.95 27.8849 198.827 27.32 198.582 26.8721C198.347 26.4135 198.033 26.0717 197.639 25.8477C197.255 25.613 196.828 25.4961 196.358 25.4961ZM240.827 25.4961C240.379 25.4961 239.952 25.613 239.547 25.8477C239.152 26.0717 238.832 26.4135 238.587 26.8721C238.352 27.3199 238.235 27.8851 238.235 28.5674C238.235 29.2394 238.352 29.805 238.587 30.2637C238.832 30.7223 239.147 31.069 239.531 31.3037C239.926 31.5277 240.353 31.6396 240.812 31.6396C241.27 31.6396 241.696 31.5275 242.091 31.3037C242.485 31.0691 242.805 30.7222 243.051 30.2637C243.296 29.805 243.419 29.2394 243.419 28.5674C243.419 27.8849 243.296 27.32 243.051 26.8721C242.816 26.4135 242.502 26.0717 242.107 25.8477C241.723 25.613 241.296 25.4961 240.827 25.4961ZM250.312 25.4961C249.864 25.4961 249.437 25.613 249.031 25.8477C248.637 26.0717 248.317 26.4135 248.071 26.8721C247.837 27.3199 247.72 27.8851 247.72 28.5674C247.72 29.2394 247.837 29.805 248.071 30.2637C248.317 30.7223 248.632 31.069 249.016 31.3037C249.41 31.5277 249.837 31.6396 250.296 31.6396C250.754 31.6396 251.181 31.5275 251.575 31.3037C251.97 31.0691 252.29 30.7222 252.535 30.2637C252.78 29.805 252.903 29.2394 252.903 28.5674C252.903 27.8849 252.78 27.32 252.535 26.8721C252.301 26.4135 251.986 26.0717 251.592 25.8477C251.208 25.613 250.781 25.4961 250.312 25.4961ZM4.04785 25.5117C3.52534 25.5117 3.0615 25.6397 2.65625 25.8955C2.25092 26.1515 1.93591 26.5091 1.71191 26.9678C1.48797 27.4264 1.376 27.9595 1.37598 28.5674C1.37598 29.1861 1.48791 29.7249 1.71191 30.1836C1.93591 30.6316 2.25092 30.9833 2.65625 31.2393C3.06155 31.4952 3.52525 31.624 4.04785 31.624C4.58117 31.624 5.05073 31.4953 5.45605 31.2393C5.86119 30.9833 6.17548 30.6314 6.39941 30.1836C6.62341 29.7249 6.73535 29.1861 6.73535 28.5674C6.73532 27.9595 6.62339 27.4264 6.39941 26.9678C6.17544 26.5092 5.86132 26.1515 5.45605 25.8955C5.05073 25.6395 4.58117 25.5117 4.04785 25.5117ZM94.0557 25.5117C93.5226 25.5118 93.0536 25.6397 92.6484 25.8955C92.2431 26.1515 91.9281 26.5091 91.7041 26.9678C91.4802 27.4264 91.3682 27.9595 91.3682 28.5674C91.3682 29.186 91.4801 29.7249 91.7041 30.1836C91.9281 30.6316 92.2431 30.9833 92.6484 31.2393C93.0536 31.4951 93.5225 31.624 94.0557 31.624C94.5783 31.624 95.0429 31.4953 95.4482 31.2393C95.8534 30.9833 96.1677 30.6314 96.3916 30.1836C96.6263 29.7249 96.7441 29.1861 96.7441 28.5674C96.7441 27.9595 96.6262 27.4264 96.3916 26.9678C96.1676 26.5092 95.8535 26.1515 95.4482 25.8955C95.0429 25.6395 94.5783 25.5117 94.0557 25.5117ZM171.095 25.5117C170.572 25.5117 170.108 25.6397 169.703 25.8955C169.298 26.1515 168.983 26.5091 168.759 26.9678C168.535 27.4264 168.423 27.9595 168.423 28.5674C168.423 29.1861 168.535 29.7249 168.759 30.1836C168.983 30.6316 169.298 30.9833 169.703 31.2393C170.108 31.4952 170.572 31.624 171.095 31.624C171.628 31.624 172.098 31.4953 172.503 31.2393C172.908 30.9833 173.222 30.6314 173.446 30.1836C173.67 29.7249 173.782 29.1861 173.782 28.5674C173.782 27.9595 173.67 27.4264 173.446 26.9678C173.222 26.5092 172.908 26.1515 172.503 25.8955C172.098 25.6395 171.628 25.5117 171.095 25.5117ZM259.876 25.5117C259.353 25.5117 258.89 25.6397 258.484 25.8955C258.079 26.1515 257.764 26.5091 257.54 26.9678C257.316 27.4264 257.204 27.9595 257.204 28.5674C257.204 29.1861 257.316 29.7249 257.54 30.1836C257.764 30.6316 258.079 30.9833 258.484 31.2393C258.89 31.4952 259.353 31.624 259.876 31.624C260.409 31.624 260.879 31.4953 261.284 31.2393C261.689 30.9833 262.004 30.6314 262.228 30.1836C262.452 29.7249 262.563 29.1861 262.563 28.5674C262.563 27.9595 262.452 27.4264 262.228 26.9678C262.004 26.5092 261.689 26.1515 261.284 25.8955C260.879 25.6395 260.409 25.5117 259.876 25.5117ZM213.075 25.4795C212.617 25.4795 212.19 25.5865 211.795 25.7998C211.411 26.0025 211.102 26.3066 210.867 26.7119C210.683 27.0225 210.572 27.3959 210.532 27.832H215.507C215.475 27.096 215.229 26.5195 214.771 26.1035C214.323 25.6877 213.758 25.4795 213.075 25.4795ZM61.7002 25.4795C61.2415 25.4795 60.8146 25.5865 60.4199 25.7998C60.036 26.0025 59.7268 26.3066 59.4922 26.7119C59.3075 27.0225 59.1965 27.3959 59.1572 27.832H64.1318C64.0998 27.096 63.8542 26.5195 63.3955 26.1035C62.9476 25.6877 62.3826 25.4795 61.7002 25.4795ZM19.8701 21C20.1261 21 20.345 21.0852 20.5264 21.2559C20.7075 21.4158 20.7978 21.629 20.7979 21.8955C20.7979 22.1621 20.7076 22.3861 20.5264 22.5674C20.345 22.7381 20.1261 22.8232 19.8701 22.8232C19.6035 22.8232 19.3796 22.738 19.1982 22.5674C19.0276 22.3861 18.9424 22.1621 18.9424 21.8955C18.9424 21.6289 19.0277 21.4158 19.1982 21.2559C19.3796 21.0852 19.6035 21 19.8701 21ZM36.8164 3.34375C37.2794 3.34376 37.6938 3.40855 38.0605 3.53516H41.0244V4.54395L39.502 4.61035C39.5365 4.66145 39.5696 4.71376 39.6006 4.76758C39.8459 5.19422 39.9688 5.67471 39.9688 6.20801C39.9687 6.74118 39.8459 7.22684 39.6006 7.66406C39.3553 8.09061 38.9975 8.43155 38.5283 8.6875C38.059 8.94349 37.4884 9.07128 36.8164 9.07129C36.3663 9.07129 35.9597 9.01233 35.5957 8.89746L34.7744 9.63574C34.8104 9.66129 34.845 9.6875 34.8799 9.71191C34.9865 9.78658 35.1312 9.84999 35.3125 9.90332C35.4938 9.95664 35.7445 10.0052 36.0645 10.0479C36.3951 10.0905 36.8271 10.1331 37.3604 10.1758C38.0962 10.2291 38.6828 10.357 39.1201 10.5596C39.5681 10.7622 39.8881 11.0346 40.0801 11.376C40.2827 11.7173 40.3848 12.1225 40.3848 12.5918C40.3847 13.0504 40.256 13.4824 40 13.8877C39.7547 14.3035 39.371 14.6445 38.8486 14.9111C38.326 15.1778 37.6534 15.3115 36.832 15.3115C36.1069 15.3115 35.4617 15.2154 34.8965 15.0234C34.3419 14.8421 33.9099 14.5597 33.6006 14.1758C33.2913 13.7919 33.1368 13.3171 33.1367 12.752C33.1367 12.5067 33.1843 12.245 33.2803 11.9678C33.3869 11.6904 33.5633 11.418 33.8086 11.1514C33.9367 11.018 34.0897 10.8906 34.2686 10.7705C34.0549 10.6802 33.8687 10.584 33.7119 10.4795C33.5309 10.3517 33.3659 10.2185 33.2168 10.0801V9.71191L34.5918 8.34961C34.3584 8.15276 34.1665 7.92455 34.0166 7.66406C33.7713 7.22684 33.6485 6.74118 33.6484 6.20801C33.6484 5.67467 33.7713 5.19424 34.0166 4.76758C34.2726 4.34098 34.6352 3.99913 35.1045 3.74316C35.5738 3.47662 36.1446 3.34375 36.8164 3.34375ZM193.106 3.34375C193.896 3.34375 194.578 3.53017 195.154 3.90332C195.741 4.27665 196.195 4.78383 196.515 5.42383C196.845 6.05313 197.011 6.77338 197.011 7.58398C197.011 8.3945 196.845 9.11986 196.515 9.75977C196.195 10.389 195.741 10.8854 195.154 11.248C194.568 11.6105 193.88 11.792 193.091 11.792C192.44 11.792 191.864 11.6583 191.362 11.3916C190.872 11.1249 190.493 10.7514 190.227 10.2715V15.1191H188.883V3.53516H190.099L190.211 4.84766C190.382 4.59183 190.6 4.3518 190.866 4.12793C191.133 3.89326 191.454 3.70605 191.827 3.56738C192.2 3.4182 192.627 3.34378 193.106 3.34375ZM229.044 3.34375C229.833 3.34375 230.516 3.53017 231.092 3.90332C231.678 4.27665 232.132 4.78383 232.452 5.42383C232.783 6.05313 232.948 6.77338 232.948 7.58398C232.948 8.3945 232.783 9.11986 232.452 9.75977C232.132 10.389 231.678 10.8854 231.092 11.248C230.505 11.6105 229.817 11.792 229.028 11.792C228.378 11.792 227.801 11.6583 227.3 11.3916C226.809 11.1249 226.431 10.7514 226.164 10.2715V15.1191H224.82V3.53516H226.036L226.148 4.84766C226.319 4.59183 226.537 4.3518 226.804 4.12793C227.07 3.89326 227.391 3.70605 227.765 3.56738C228.138 3.4182 228.564 3.34378 229.044 3.34375ZM35.5391 11.0977C35.1246 11.3017 34.846 11.5272 34.7041 11.7754C34.5334 12.0847 34.4482 12.368 34.4482 12.624C34.4483 12.9758 34.5494 13.2693 34.752 13.5039C34.9546 13.7386 35.2379 13.9139 35.6006 14.0312C35.9631 14.1485 36.3735 14.208 36.832 14.208C37.2907 14.208 37.6859 14.1436 38.0166 14.0156C38.3471 13.8877 38.6029 13.7062 38.7842 13.4717C38.9655 13.237 39.0566 12.9596 39.0566 12.6396C39.0566 12.2663 38.9179 11.9513 38.6406 11.6953C38.3633 11.45 37.8351 11.3064 37.0566 11.2637C36.4596 11.2232 35.9537 11.1669 35.5391 11.0977ZM287.271 13.5674H286.343L287.271 10.0312H288.662L287.271 13.5674ZM12.9199 3.34375C13.709 3.34382 14.376 3.52014 14.9199 3.87207C15.4743 4.22403 15.8957 4.68786 16.1836 5.26367C16.4822 5.82898 16.6318 6.45312 16.6318 7.13574V7.47168C16.6318 7.589 16.6259 7.72277 16.6152 7.87207H10.333C10.3569 8.43539 10.4721 8.91518 10.6797 9.31152C10.9249 9.75934 11.2392 10.0953 11.623 10.3193C12.0177 10.5433 12.4397 10.6553 12.8877 10.6553C13.4527 10.6552 13.9167 10.5332 14.2793 10.2881C14.6526 10.0321 14.9191 9.69026 15.0791 9.26367H16.4072C16.2792 9.74363 16.0553 10.1756 15.7354 10.5596C15.4154 10.9436 15.0151 11.2477 14.5352 11.4717C14.0659 11.6849 13.5168 11.792 12.8877 11.792C12.1304 11.792 11.4578 11.6157 10.8711 11.2637C10.2953 10.9118 9.84232 10.421 9.51172 9.79199C9.18105 9.15199 9.01562 8.41005 9.01562 7.56738C9.01565 6.71426 9.17523 5.97298 9.49512 5.34375C9.8257 4.71458 10.2846 4.22405 10.8711 3.87207C11.4684 3.52007 12.1519 3.34375 12.9199 3.34375ZM45.8262 3.34375C46.6153 3.34382 47.2823 3.52014 47.8262 3.87207C48.3806 4.22403 48.8019 4.68786 49.0898 5.26367C49.3885 5.82898 49.5381 6.45312 49.5381 7.13574V7.47168C49.5381 7.589 49.5322 7.72277 49.5215 7.87207H43.2393C43.2632 8.43539 43.3783 8.91518 43.5859 9.31152C43.8312 9.75934 44.1455 10.0953 44.5293 10.3193C44.924 10.5433 45.3459 10.6553 45.7939 10.6553C46.359 10.6552 46.823 10.5332 47.1855 10.2881C47.5588 10.0321 47.8253 9.69026 47.9854 9.26367H49.3135C49.1855 9.74363 48.9616 10.1756 48.6416 10.5596C48.3216 10.9436 47.9214 11.2477 47.4414 11.4717C46.9722 11.6849 46.4231 11.792 45.7939 11.792C45.0366 11.792 44.364 11.6157 43.7773 11.2637C43.2016 10.9118 42.7486 10.421 42.418 9.79199C42.0873 9.15199 41.9219 8.41005 41.9219 7.56738C41.9219 6.71426 42.0815 5.97298 42.4014 5.34375C42.7319 4.71458 43.1909 4.22405 43.7773 3.87207C44.3747 3.52007 45.0582 3.34375 45.8262 3.34375ZM60.5537 3.34375C61.3002 3.3438 61.9186 3.4825 62.4092 3.75977C62.9105 4.02642 63.284 4.40488 63.5293 4.89551C63.7746 5.37546 63.8974 5.94617 63.8975 6.60742V11.5996H62.6973L62.6172 10.1758C62.5105 10.3997 62.3718 10.6128 62.2012 10.8154C62.0412 11.0074 61.849 11.1778 61.625 11.3271C61.401 11.4658 61.1454 11.5787 60.8574 11.6641C60.5801 11.7494 60.2601 11.792 59.8975 11.792C59.247 11.792 58.7029 11.6799 58.2656 11.4561C57.8283 11.2214 57.5024 10.9172 57.2891 10.5439C57.0758 10.16 56.9698 9.74379 56.9697 9.2959C56.9697 8.7519 57.1084 8.29325 57.3857 7.91992C57.6737 7.53601 58.0731 7.24766 58.585 7.05566C59.1076 6.853 59.7218 6.75195 60.4258 6.75195H62.5537C62.5537 6.25077 62.4734 5.83452 62.3135 5.50391C62.1642 5.16261 61.9402 4.90602 61.6416 4.73535C61.3537 4.56474 60.9909 4.47954 60.5537 4.47949C60.0419 4.47949 59.5989 4.60743 59.2256 4.86328C58.8523 5.11928 58.6224 5.49867 58.5371 6H57.1611C57.2251 5.424 57.4173 4.94357 57.7373 4.55957C58.0679 4.16495 58.4841 3.86673 58.9854 3.66406C59.4867 3.45073 60.0097 3.34375 60.5537 3.34375ZM75.373 3.34375C76.1622 3.34382 76.8292 3.52014 77.373 3.87207C77.9274 4.22403 78.3488 4.68786 78.6367 5.26367C78.9353 5.82898 79.085 6.45312 79.085 7.13574V7.47168C79.085 7.589 79.079 7.72277 79.0684 7.87207H72.7861C72.8101 8.43539 72.9252 8.91518 73.1328 9.31152C73.3781 9.75934 73.6924 10.0953 74.0762 10.3193C74.4708 10.5433 74.8928 10.6553 75.3408 10.6553C75.9059 10.6552 76.3699 10.5332 76.7324 10.2881C77.1057 10.0321 77.3722 9.69026 77.5322 9.26367H78.8604C78.7323 9.74363 78.5085 10.1756 78.1885 10.5596C77.8685 10.9436 77.4683 11.2477 76.9883 11.4717C76.5191 11.6849 75.9699 11.792 75.3408 11.792C74.5835 11.792 73.9109 11.6157 73.3242 11.2637C72.7485 10.9118 72.2954 10.421 71.9648 9.79199C71.6342 9.15199 71.4688 8.41005 71.4688 7.56738C71.4688 6.71426 71.6284 5.97298 71.9482 5.34375C72.2788 4.71458 72.7378 4.22405 73.3242 3.87207C73.9216 3.52007 74.605 3.34375 75.373 3.34375ZM88.6904 11.5996H87.4746L87.3623 10.2715C87.1916 10.5382 86.9727 10.7888 86.7061 11.0234C86.4394 11.2474 86.1194 11.4347 85.7461 11.584C85.3728 11.7226 84.9407 11.792 84.4502 11.792C83.6717 11.792 82.9889 11.6106 82.4023 11.248C81.8157 10.8747 81.362 10.3675 81.042 9.72754C80.7221 9.08762 80.5625 8.36229 80.5625 7.55176C80.5625 6.74115 80.722 6.0209 81.042 5.3916C81.362 4.75161 81.8157 4.25036 82.4023 3.8877C82.9997 3.52503 83.6881 3.34375 84.4668 3.34375C85.1279 3.34381 85.7038 3.47662 86.1943 3.74316C86.6956 4.00981 87.08 4.38333 87.3467 4.86328V0.0800781H88.6904V11.5996ZM110.647 3.34375C111.394 3.3438 112.012 3.4825 112.503 3.75977C113.004 4.02642 113.378 4.40488 113.623 4.89551C113.868 5.37546 113.991 5.94617 113.991 6.60742V11.5996H112.791L112.711 10.1758C112.604 10.3997 112.466 10.6128 112.295 10.8154C112.135 11.0074 111.943 11.1778 111.719 11.3271C111.495 11.4658 111.239 11.5787 110.951 11.6641C110.674 11.7494 110.354 11.792 109.991 11.792C109.341 11.792 108.797 11.6799 108.359 11.4561C107.922 11.2214 107.596 10.9172 107.383 10.5439C107.17 10.16 107.064 9.74379 107.063 9.2959C107.063 8.7519 107.202 8.29325 107.479 7.91992C107.767 7.53601 108.167 7.24766 108.679 7.05566C109.201 6.853 109.816 6.75195 110.52 6.75195H112.647C112.647 6.25077 112.567 5.83452 112.407 5.50391C112.258 5.16261 112.034 4.90602 111.735 4.73535C111.447 4.56474 111.085 4.47954 110.647 4.47949C110.136 4.47949 109.693 4.60743 109.319 4.86328C108.946 5.11928 108.716 5.49867 108.631 6H107.255C107.319 5.424 107.511 4.94357 107.831 4.55957C108.162 4.16495 108.578 3.86673 109.079 3.66406C109.58 3.45073 110.103 3.34375 110.647 3.34375ZM127.045 3.34375C127.834 3.34382 128.501 3.52014 129.045 3.87207C129.599 4.22403 130.021 4.68786 130.309 5.26367C130.607 5.82898 130.757 6.45312 130.757 7.13574V7.47168C130.757 7.589 130.751 7.72277 130.74 7.87207H124.458C124.482 8.43539 124.597 8.91518 124.805 9.31152C125.05 9.75934 125.364 10.0953 125.748 10.3193C126.143 10.5433 126.565 10.6553 127.013 10.6553C127.578 10.6552 128.042 10.5332 128.404 10.2881C128.778 10.0321 129.044 9.69026 129.204 9.26367H130.532C130.404 9.74363 130.18 10.1756 129.86 10.5596C129.54 10.9436 129.14 11.2477 128.66 11.4717C128.191 11.6849 127.642 11.792 127.013 11.792C126.255 11.792 125.583 11.6157 124.996 11.2637C124.42 10.9118 123.967 10.421 123.637 9.79199C123.306 9.15199 123.141 8.41005 123.141 7.56738C123.141 6.71426 123.3 5.97298 123.62 5.34375C123.951 4.71458 124.41 4.22405 124.996 3.87207C125.593 3.52007 126.277 3.34375 127.045 3.34375ZM141.308 3.34375C142.172 3.34375 142.871 3.55177 143.404 3.96777C143.937 4.38372 144.252 4.9863 144.348 5.77539H143.021C142.967 5.37026 142.791 5.05599 142.492 4.83203C142.204 4.59736 141.804 4.47949 141.292 4.47949C140.791 4.4795 140.406 4.58055 140.14 4.7832C139.884 4.98586 139.756 5.25334 139.756 5.58398C139.756 5.79702 139.825 5.9887 139.964 6.15918C140.113 6.31918 140.327 6.45786 140.604 6.5752C140.892 6.69249 141.244 6.78863 141.66 6.86328C142.193 6.95928 142.679 7.08805 143.116 7.24805C143.553 7.40805 143.905 7.64784 144.172 7.96777C144.449 8.27711 144.588 8.7199 144.588 9.2959C144.588 9.79705 144.46 10.2342 144.204 10.6074C143.959 10.9806 143.607 11.274 143.148 11.4873C142.69 11.69 142.151 11.792 141.532 11.792C140.86 11.792 140.274 11.6799 139.772 11.4561C139.282 11.2321 138.887 10.922 138.588 10.5273C138.3 10.1221 138.125 9.6474 138.061 9.10352H139.437C139.49 9.38085 139.602 9.6374 139.772 9.87207C139.943 10.1065 140.172 10.2981 140.46 10.4473C140.759 10.5859 141.121 10.6552 141.548 10.6553C141.921 10.6553 142.23 10.6026 142.476 10.4961C142.721 10.3788 142.903 10.2233 143.021 10.0312C143.148 9.83938 143.212 9.63105 143.212 9.40723C143.212 9.07675 143.132 8.82587 142.972 8.65527C142.822 8.48479 142.598 8.35179 142.3 8.25586C142.001 8.14922 141.639 8.05805 141.212 7.9834C140.86 7.9194 140.513 7.83419 140.172 7.72754C139.831 7.62088 139.526 7.48216 139.26 7.31152C138.993 7.13022 138.78 6.91119 138.62 6.65527C138.471 6.39938 138.397 6.085 138.396 5.71191C138.396 5.2534 138.514 4.84801 138.748 4.49609C138.983 4.13346 139.319 3.85012 139.756 3.64746C140.204 3.44485 140.721 3.3438 141.308 3.34375ZM166.241 3.34375C166.988 3.3438 167.606 3.4825 168.097 3.75977C168.598 4.02642 168.971 4.40488 169.217 4.89551C169.462 5.37546 169.585 5.94617 169.585 6.60742V11.5996H168.385L168.305 10.1758C168.198 10.3997 168.059 10.6128 167.889 10.8154C167.729 11.0074 167.536 11.1778 167.312 11.3271C167.089 11.4658 166.833 11.5787 166.545 11.6641C166.268 11.7494 165.948 11.792 165.585 11.792C164.935 11.792 164.39 11.6799 163.953 11.4561C163.516 11.2214 163.19 10.9172 162.977 10.5439C162.763 10.16 162.657 9.74379 162.657 9.2959C162.657 8.7519 162.796 8.29325 163.073 7.91992C163.361 7.53601 163.761 7.24766 164.272 7.05566C164.795 6.853 165.409 6.75195 166.113 6.75195H168.241C168.241 6.25077 168.161 5.83452 168.001 5.50391C167.852 5.16261 167.628 4.90602 167.329 4.73535C167.041 4.56474 166.678 4.47954 166.241 4.47949C165.729 4.47949 165.286 4.60743 164.913 4.86328C164.54 5.11928 164.31 5.49867 164.225 6H162.849C162.913 5.424 163.105 4.94357 163.425 4.55957C163.755 4.16495 164.172 3.86673 164.673 3.66406C165.174 3.45073 165.697 3.34375 166.241 3.34375ZM183.667 3.34375C184.531 3.34375 185.23 3.55177 185.764 3.96777C186.297 4.38372 186.611 4.9863 186.707 5.77539H185.38C185.327 5.37026 185.15 5.05599 184.852 4.83203C184.564 4.59736 184.163 4.47949 183.651 4.47949C183.15 4.4795 182.766 4.58055 182.499 4.7832C182.243 4.98586 182.115 5.25334 182.115 5.58398C182.115 5.79702 182.185 5.9887 182.323 6.15918C182.473 6.31918 182.687 6.45786 182.964 6.5752C183.252 6.69249 183.604 6.78863 184.02 6.86328C184.553 6.95928 185.038 7.08805 185.476 7.24805C185.913 7.40805 186.265 7.64784 186.531 7.96777C186.809 8.27711 186.947 8.7199 186.947 9.2959C186.947 9.79705 186.819 10.2342 186.563 10.6074C186.318 10.9806 185.966 11.274 185.508 11.4873C185.049 11.69 184.51 11.792 183.892 11.792C183.22 11.792 182.633 11.6799 182.132 11.4561C181.641 11.2321 181.246 10.922 180.947 10.5273C180.659 10.1221 180.484 9.6474 180.42 9.10352H181.796C181.849 9.38085 181.961 9.6374 182.132 9.87207C182.302 10.1065 182.532 10.2981 182.819 10.4473C183.118 10.5859 183.481 10.6552 183.907 10.6553C184.28 10.6553 184.59 10.6026 184.835 10.4961C185.08 10.3788 185.263 10.2233 185.38 10.0312C185.508 9.83938 185.571 9.63105 185.571 9.40723C185.571 9.07675 185.491 8.82587 185.331 8.65527C185.182 8.48479 184.958 8.35179 184.659 8.25586C184.361 8.14922 183.998 8.05805 183.571 7.9834C183.219 7.9194 182.873 7.83419 182.531 7.72754C182.19 7.62088 181.886 7.48216 181.619 7.31152C181.353 7.13022 181.139 6.91119 180.979 6.65527C180.83 6.39938 180.756 6.085 180.756 5.71191C180.756 5.2534 180.873 4.84801 181.107 4.49609C181.342 4.13346 181.678 3.85012 182.115 3.64746C182.563 3.44485 183.081 3.3438 183.667 3.34375ZM202.53 3.34375C203.298 3.34375 203.976 3.52007 204.562 3.87207C205.16 4.2134 205.629 4.70387 205.971 5.34375C206.323 5.97297 206.498 6.71427 206.498 7.56738C206.498 8.42065 206.323 9.16765 205.971 9.80762C205.619 10.437 205.143 10.9273 204.546 11.2793C203.949 11.6206 203.266 11.792 202.498 11.792C201.751 11.792 201.08 11.6206 200.482 11.2793C199.885 10.9273 199.416 10.4369 199.074 9.80762C198.733 9.16772 198.563 8.42648 198.562 7.58398C198.562 6.72005 198.733 5.97305 199.074 5.34375C199.426 4.70389 199.901 4.21339 200.498 3.87207C201.106 3.52008 201.784 3.34376 202.53 3.34375ZM244.093 3.34375C244.861 3.34375 245.538 3.52007 246.125 3.87207C246.722 4.2134 247.192 4.70387 247.533 5.34375C247.885 5.97297 248.061 6.71427 248.061 7.56738C248.061 8.42065 247.885 9.16765 247.533 9.80762C247.181 10.437 246.706 10.9273 246.108 11.2793C245.511 11.6206 244.828 11.792 244.061 11.792C243.314 11.792 242.642 11.6206 242.045 11.2793C241.448 10.9273 240.978 10.4369 240.637 9.80762C240.295 9.16772 240.125 8.42648 240.125 7.58398C240.125 6.72005 240.295 5.97305 240.637 5.34375C240.989 4.70389 241.463 4.21339 242.061 3.87207C242.669 3.52008 243.346 3.34376 244.093 3.34375ZM257.737 11.5996H256.521L256.409 10.2715C256.239 10.5382 256.02 10.7888 255.753 11.0234C255.486 11.2474 255.166 11.4347 254.793 11.584C254.42 11.7226 253.988 11.792 253.497 11.792C252.719 11.792 252.036 11.6106 251.449 11.248C250.863 10.8747 250.409 10.3675 250.089 9.72754C249.769 9.08762 249.609 8.36229 249.609 7.55176C249.609 6.74115 249.769 6.0209 250.089 5.3916C250.409 4.75161 250.863 4.25036 251.449 3.8877C252.047 3.52503 252.735 3.34375 253.514 3.34375C254.175 3.34381 254.751 3.47662 255.241 3.74316C255.743 4.00981 256.127 4.38333 256.394 4.86328V0.0800781H257.737V11.5996ZM261.177 8.22363C261.177 9.02337 261.352 9.62592 261.704 10.0312C262.056 10.4366 262.552 10.6396 263.192 10.6396C263.64 10.6396 264.046 10.5326 264.408 10.3193C264.771 10.0954 265.054 9.78124 265.257 9.37598C265.47 8.95998 265.576 8.4528 265.576 7.85547V3.53516H266.921V11.5996H265.704L265.624 10.1914C265.379 10.6927 265.016 11.088 264.536 11.376C264.056 11.6532 263.512 11.792 262.904 11.792C262.286 11.792 261.742 11.6691 261.272 11.4238C260.814 11.1785 260.456 10.7999 260.2 10.2881C259.955 9.77609 259.832 9.13519 259.832 8.36719V3.53516H261.177V8.22363ZM272.78 3.34375C273.74 3.34375 274.541 3.59437 275.181 4.0957C275.821 4.58635 276.226 5.24819 276.396 6.08008H275.021C274.914 5.57874 274.652 5.18847 274.236 4.91113C273.82 4.63395 273.33 4.49615 272.765 4.49609C272.306 4.49609 271.879 4.613 271.484 4.84766C271.09 5.07166 270.775 5.4134 270.54 5.87207C270.306 6.3306 270.189 6.89572 270.188 7.56738C270.188 8.06856 270.258 8.51656 270.396 8.91113C270.535 9.29513 270.721 9.61607 270.956 9.87207C271.191 10.128 271.463 10.3252 271.772 10.4639C272.092 10.5918 272.423 10.6553 272.765 10.6553C273.149 10.6552 273.495 10.5968 273.805 10.4795C274.114 10.3516 274.375 10.165 274.588 9.91992C274.801 9.67459 274.946 9.38633 275.021 9.05566H276.396C276.226 9.86632 275.815 10.528 275.164 11.04C274.524 11.5412 273.729 11.792 272.78 11.792C272.023 11.792 271.34 11.6156 270.732 11.2637C270.135 10.9117 269.666 10.4212 269.324 9.79199C268.983 9.15209 268.813 8.41583 268.812 7.58398C268.812 6.73065 268.983 5.98871 269.324 5.35938C269.666 4.73011 270.135 4.23967 270.732 3.8877C271.34 3.52505 272.023 3.34376 272.78 3.34375ZM281.873 3.34375C282.662 3.34382 283.329 3.52014 283.873 3.87207C284.427 4.22403 284.849 4.68786 285.137 5.26367C285.435 5.82898 285.585 6.45312 285.585 7.13574V7.47168C285.585 7.589 285.579 7.72277 285.568 7.87207H279.286C279.31 8.43539 279.425 8.91518 279.633 9.31152C279.878 9.75934 280.192 10.0953 280.576 10.3193C280.971 10.5433 281.393 10.6553 281.841 10.6553C282.406 10.6552 282.87 10.5332 283.232 10.2881C283.606 10.0321 283.872 9.69026 284.032 9.26367H285.36C285.232 9.74363 285.008 10.1756 284.688 10.5596C284.368 10.9436 283.968 11.2477 283.488 11.4717C283.019 11.6849 282.47 11.792 281.841 11.792C281.083 11.792 280.411 11.6157 279.824 11.2637C279.248 10.9118 278.795 10.421 278.465 9.79199C278.134 9.15199 277.969 8.41005 277.969 7.56738C277.969 6.71426 278.128 5.97298 278.448 5.34375C278.779 4.71458 279.238 4.22405 279.824 3.87207C280.422 3.52007 281.105 3.34375 281.873 3.34375ZM4.03223 0.399414C4.9067 0.39946 5.6212 0.54904 6.17578 0.847656C6.73045 1.13566 7.14154 1.52496 7.4082 2.01562C7.67481 2.50625 7.80762 3.06109 7.80762 3.67969C7.8076 4.27689 7.66883 4.82591 7.3916 5.32715C7.12493 5.82848 6.70889 6.22868 6.14355 6.52734C5.94144 6.63411 5.71859 6.72047 5.47559 6.78906L7.91992 11.5996H6.33594L4.05957 6.97363C4.02917 6.97399 3.99856 6.97559 3.96777 6.97559H1.75977V11.5996H0.416016V0.399414H4.03223ZM22.0615 1.23145H21.3574C20.9628 1.23145 20.6745 1.31168 20.4932 1.47168C20.3226 1.63165 20.2373 1.91419 20.2373 2.31934V3.53516H22.2695V4.67188H20.2373V11.5996H18.8936V4.67188H17.6611V3.53516H18.8936V2.28809C18.8936 1.77622 18.9788 1.36001 19.1494 1.04004C19.3201 0.709372 19.5707 0.468669 19.9014 0.319336C20.2427 0.159413 20.6589 0.0800781 21.1494 0.0800781H22.0615V1.23145ZM28.2822 4.75195H27.7871C27.4458 4.75195 27.1199 4.79951 26.8105 4.89551C26.5013 4.98083 26.2238 5.12456 25.9785 5.32715C25.7439 5.52973 25.5576 5.8074 25.4189 6.15918C25.291 6.50048 25.2266 6.92752 25.2266 7.43945V11.5996H23.8828V3.53516H25.0986L25.1943 5.07129C25.3757 4.70867 25.6055 4.39953 25.8828 4.14355C26.1707 3.88769 26.5118 3.6904 26.9062 3.55176C27.3115 3.41313 27.7704 3.34379 28.2822 3.34375V4.75195ZM31.2764 11.5996H29.9326V3.53516H31.2764V11.5996ZM55.751 4.75195H55.2559C54.9145 4.75195 54.5886 4.79951 54.2793 4.89551C53.9701 4.98083 53.6925 5.12456 53.4473 5.32715C53.2127 5.52973 53.0263 5.8074 52.8877 6.15918C52.7597 6.50048 52.6953 6.92752 52.6953 7.43945V11.5996H51.3516V3.53516H52.5674L52.6631 5.07129C52.8444 4.70867 53.0743 4.39953 53.3516 4.14355C53.6394 3.88769 53.9806 3.6904 54.375 3.55176C54.7802 3.41313 55.2392 3.34379 55.751 3.34375V4.75195ZM67.9336 3.53516H70.2695V4.67188H67.9336V9.16797C67.9336 9.66884 68.0349 10.01 68.2373 10.1914C68.44 10.3621 68.7976 10.4473 69.3096 10.4473H70.1738V11.5996H68.9258C68.4459 11.5996 68.0297 11.5253 67.6777 11.376C67.3258 11.2267 67.0533 10.9759 66.8613 10.624C66.68 10.2614 66.5899 9.7758 66.5898 9.16797V4.67188H65.1816V3.53516H66.5898L66.7656 1.58398H67.9336V3.53516ZM97.3555 3.53516H99.6914V4.67188H97.3555V9.16797C97.3555 9.66884 97.4568 10.01 97.6592 10.1914C97.8618 10.3621 98.2195 10.4473 98.7314 10.4473H99.5957V11.5996H98.3477C97.8677 11.5996 97.4516 11.5253 97.0996 11.376C96.7477 11.2267 96.4752 10.9759 96.2832 10.624C96.1019 10.2614 96.0118 9.7758 96.0117 9.16797V4.67188H94.6035V3.53516H96.0117L96.1875 1.58398H97.3555V3.53516ZM105.845 4.75195H105.35C105.008 4.75195 104.682 4.79951 104.373 4.89551C104.064 4.98083 103.786 5.12456 103.541 5.32715C103.306 5.52973 103.12 5.8074 102.981 6.15918C102.853 6.50048 102.789 6.92752 102.789 7.43945V11.5996H101.445V3.53516H102.661L102.757 5.07129C102.938 4.70867 103.168 4.39953 103.445 4.14355C103.733 3.88769 104.074 3.6904 104.469 3.55176C104.874 3.41313 105.333 3.34379 105.845 3.34375V4.75195ZM117.542 11.5996H116.198V3.53516H117.542V11.5996ZM121.258 11.5996H119.914V0.0800781H121.258V11.5996ZM136.97 4.75195H136.475C136.133 4.75195 135.807 4.79951 135.498 4.89551C135.189 4.98083 134.911 5.12456 134.666 5.32715C134.431 5.52973 134.245 5.8074 134.106 6.15918C133.978 6.50048 133.914 6.92752 133.914 7.43945V11.5996H132.57V3.53516H133.786L133.882 5.07129C134.063 4.70867 134.293 4.39953 134.57 4.14355C134.858 3.88769 135.199 3.6904 135.594 3.55176C135.999 3.41313 136.458 3.34379 136.97 3.34375V4.75195ZM152.949 3.53516H155.285V4.67188H152.949V9.16797C152.949 9.66884 153.051 10.01 153.253 10.1914C153.456 10.3621 153.813 10.4473 154.325 10.4473H155.189V11.5996H153.941C153.461 11.5996 153.045 11.5253 152.693 11.376C152.341 11.2267 152.069 10.9759 151.877 10.624C151.696 10.2614 151.605 9.7758 151.605 9.16797V4.67188H150.197V3.53516H151.605L151.781 1.58398H152.949V3.53516ZM161.438 4.75195H160.943C160.602 4.75195 160.276 4.79951 159.967 4.89551C159.658 4.98083 159.38 5.12456 159.135 5.32715C158.9 5.52973 158.714 5.8074 158.575 6.15918C158.447 6.50048 158.383 6.92752 158.383 7.43945V11.5996H157.039V3.53516H158.255L158.351 5.07129C158.532 4.70867 158.762 4.39953 159.039 4.14355C159.327 3.88769 159.668 3.6904 160.062 3.55176C160.468 3.41313 160.927 3.34379 161.438 3.34375V4.75195ZM175.664 3.34375C176.293 3.34377 176.837 3.47158 177.296 3.72754C177.755 3.97284 178.112 4.35137 178.368 4.86328C178.624 5.36453 178.752 6.00472 178.752 6.7832V11.5996H177.408V6.92773C177.408 6.11714 177.227 5.50885 176.864 5.10352C176.512 4.69827 176.011 4.49618 175.36 4.49609C174.912 4.49609 174.512 4.60803 174.16 4.83203C173.808 5.04536 173.525 5.3594 173.312 5.77539C173.109 6.18072 173.008 6.6879 173.008 7.2959V11.5996H171.664V3.53516H172.88L172.944 4.94336C173.2 4.4422 173.563 4.05266 174.032 3.77539C174.512 3.48751 175.056 3.34375 175.664 3.34375ZM212.782 4.75195H212.287C211.946 4.75195 211.62 4.79951 211.311 4.89551C211.001 4.98083 210.724 5.12456 210.479 5.32715C210.244 5.52973 210.058 5.8074 209.919 6.15918C209.791 6.50048 209.727 6.92752 209.727 7.43945V11.5996H208.383V3.53516H209.599L209.694 5.07129C209.876 4.70867 210.106 4.39953 210.383 4.14355C210.671 3.88769 211.012 3.6904 211.406 3.55176C211.811 3.41313 212.27 3.34379 212.782 3.34375V4.75195ZM216.48 3.53516H218.816V4.67188H216.48V9.16797C216.481 9.66884 216.582 10.01 216.784 10.1914C216.987 10.3621 217.345 10.4473 217.856 10.4473H218.721V11.5996H217.473C216.993 11.5996 216.577 11.5253 216.225 11.376C215.873 11.2267 215.6 10.9759 215.408 10.624C215.227 10.2614 215.137 9.7758 215.137 9.16797V4.67188H213.729V3.53516H215.137L215.312 1.58398H216.48V3.53516ZM239.235 4.75195H238.74C238.399 4.75195 238.073 4.79951 237.764 4.89551C237.454 4.98083 237.177 5.12456 236.932 5.32715C236.697 5.52973 236.511 5.8074 236.372 6.15918C236.244 6.50048 236.18 6.92752 236.18 7.43945V11.5996H234.836V3.53516H236.052L236.147 5.07129C236.329 4.70867 236.559 4.39953 236.836 4.14355C237.124 3.88769 237.465 3.6904 237.859 3.55176C238.265 3.41313 238.724 3.34379 239.235 3.34375V4.75195ZM60.5371 7.79199C60.0146 7.79201 59.5934 7.85546 59.2734 7.9834C58.9534 8.10073 58.7236 8.27209 58.585 8.49609C58.4465 8.70927 58.377 8.9544 58.377 9.23145C58.377 9.51938 58.4414 9.7701 58.5693 9.9834C58.708 10.1967 58.9052 10.3622 59.1611 10.4795C59.4278 10.5968 59.7428 10.6553 60.1055 10.6553C60.4787 10.6553 60.8147 10.5809 61.1133 10.4316C61.4226 10.2717 61.6842 10.0586 61.8975 9.79199C62.1107 9.51476 62.2703 9.21041 62.377 8.87988C62.4943 8.54929 62.5537 8.20243 62.5537 7.83984V7.79199H60.5371ZM110.631 7.79199C110.108 7.79201 109.687 7.85546 109.367 7.9834C109.047 8.10073 108.817 8.27209 108.679 8.49609C108.54 8.70927 108.471 8.9544 108.471 9.23145C108.471 9.51938 108.535 9.7701 108.663 9.9834C108.802 10.1967 108.999 10.3622 109.255 10.4795C109.522 10.5968 109.837 10.6553 110.199 10.6553C110.572 10.6553 110.908 10.5809 111.207 10.4316C111.516 10.2717 111.778 10.0586 111.991 9.79199C112.204 9.51476 112.364 9.21041 112.471 8.87988C112.588 8.54929 112.647 8.20243 112.647 7.83984V7.79199H110.631ZM166.225 7.79199C165.702 7.79201 165.281 7.85546 164.961 7.9834C164.641 8.10073 164.411 8.27209 164.272 8.49609C164.134 8.70927 164.064 8.9544 164.064 9.23145C164.064 9.51938 164.129 9.7701 164.257 9.9834C164.395 10.1967 164.593 10.3622 164.849 10.4795C165.115 10.5968 165.43 10.6553 165.793 10.6553C166.166 10.6553 166.502 10.5809 166.801 10.4316C167.11 10.2717 167.372 10.0586 167.585 9.79199C167.798 9.51476 167.958 9.21041 168.064 8.87988C168.182 8.54929 168.241 8.20243 168.241 7.83984V7.79199H166.225ZM202.53 4.49609C202.082 4.4961 201.655 4.613 201.25 4.84766C200.855 5.07166 200.535 5.41351 200.29 5.87207C200.056 6.31994 199.939 6.88506 199.938 7.56738C199.938 8.23935 200.055 8.80502 200.29 9.26367C200.535 9.72234 200.85 10.069 201.234 10.3037C201.629 10.5277 202.056 10.6396 202.515 10.6396C202.973 10.6396 203.399 10.5275 203.794 10.3037C204.189 10.0691 204.509 9.72223 204.754 9.26367C204.999 8.80501 205.122 8.23938 205.122 7.56738C205.122 6.88491 204.999 6.31999 204.754 5.87207C204.519 5.41348 204.205 5.07166 203.811 4.84766C203.427 4.61299 203 4.49609 202.53 4.49609ZM244.093 4.49609C243.645 4.4961 243.218 4.613 242.812 4.84766C242.418 5.07166 242.098 5.41351 241.853 5.87207C241.618 6.31994 241.501 6.88506 241.501 7.56738C241.501 8.23935 241.618 8.80502 241.853 9.26367C242.098 9.72234 242.413 10.069 242.797 10.3037C243.192 10.5277 243.619 10.6396 244.077 10.6396C244.536 10.6396 244.962 10.5275 245.356 10.3037C245.751 10.0691 246.071 9.72223 246.316 9.26367C246.562 8.80501 246.685 8.23938 246.685 7.56738C246.685 6.88491 246.562 6.31999 246.316 5.87207C246.082 5.41348 245.768 5.07166 245.373 4.84766C244.989 4.61299 244.562 4.49609 244.093 4.49609ZM84.6104 4.51172C84.0878 4.51172 83.624 4.63966 83.2188 4.89551C82.8134 5.15151 82.4984 5.50911 82.2744 5.96777C82.0505 6.42636 81.9385 6.95952 81.9385 7.56738C81.9385 8.18605 82.0504 8.72493 82.2744 9.18359C82.4984 9.63158 82.8134 9.98326 83.2188 10.2393C83.624 10.4952 84.0877 10.624 84.6104 10.624C85.1437 10.624 85.6132 10.4953 86.0186 10.2393C86.4237 9.9833 86.738 9.6314 86.9619 9.18359C87.1859 8.72493 87.2979 8.18605 87.2979 7.56738C87.2978 6.95948 87.1859 6.42638 86.9619 5.96777C86.7379 5.50917 86.4238 5.1515 86.0186 4.89551C85.6132 4.63951 85.1437 4.51172 84.6104 4.51172ZM192.946 4.51172C192.413 4.51178 191.944 4.6397 191.539 4.89551C191.134 5.15151 190.819 5.50911 190.595 5.96777C190.371 6.42636 190.259 6.95953 190.259 7.56738C190.259 8.18605 190.371 8.72493 190.595 9.18359C190.819 9.63159 191.134 9.98326 191.539 10.2393C191.944 10.4951 192.413 10.624 192.946 10.624C193.469 10.624 193.934 10.4953 194.339 10.2393C194.744 9.98331 195.058 9.63141 195.282 9.18359C195.517 8.72493 195.635 8.18605 195.635 7.56738C195.635 6.95948 195.517 6.42638 195.282 5.96777C195.058 5.50916 194.744 5.15149 194.339 4.89551C193.934 4.63951 193.469 4.51172 192.946 4.51172ZM228.884 4.51172C228.351 4.51178 227.882 4.6397 227.477 4.89551C227.071 5.15151 226.756 5.50911 226.532 5.96777C226.308 6.42636 226.196 6.95953 226.196 7.56738C226.196 8.18605 226.308 8.72493 226.532 9.18359C226.756 9.63159 227.071 9.98326 227.477 10.2393C227.882 10.4951 228.351 10.624 228.884 10.624C229.406 10.624 229.871 10.4953 230.276 10.2393C230.682 9.98331 230.996 9.63141 231.22 9.18359C231.454 8.72493 231.572 8.18605 231.572 7.56738C231.572 6.95948 231.454 6.42638 231.22 5.96777C230.996 5.50916 230.682 5.15149 230.276 4.89551C229.871 4.63951 229.406 4.51172 228.884 4.51172ZM253.657 4.51172C253.135 4.51172 252.671 4.63966 252.266 4.89551C251.86 5.15151 251.545 5.50911 251.321 5.96777C251.097 6.42636 250.985 6.95952 250.985 7.56738C250.985 8.18605 251.097 8.72493 251.321 9.18359C251.545 9.63158 251.86 9.98326 252.266 10.2393C252.671 10.4952 253.135 10.624 253.657 10.624C254.191 10.624 254.66 10.4953 255.065 10.2393C255.471 9.9833 255.785 9.6314 256.009 9.18359C256.233 8.72493 256.345 8.18605 256.345 7.56738C256.345 6.95948 256.233 6.42638 256.009 5.96777C255.785 5.50917 255.471 5.1515 255.065 4.89551C254.66 4.63951 254.191 4.51172 253.657 4.51172ZM36.8164 4.46387C36.2512 4.46387 35.7924 4.61264 35.4404 4.91113C35.0991 5.2098 34.9287 5.64267 34.9287 6.20801C34.9288 6.78381 35.0992 7.22093 35.4404 7.51953C35.7818 7.81818 36.2404 7.96777 36.8164 7.96777C37.3924 7.96776 37.8461 7.81818 38.1768 7.51953C38.5072 7.22094 38.6718 6.78365 38.6719 6.20801C38.6719 5.64268 38.5074 5.2098 38.1768 4.91113C37.8461 4.61248 37.3924 4.46388 36.8164 4.46387ZM281.841 4.47949C281.382 4.47949 280.955 4.58647 280.561 4.7998C280.177 5.00247 279.867 5.30662 279.633 5.71191C279.448 6.02254 279.337 6.39587 279.298 6.83203H284.272C284.24 6.09603 283.995 5.51952 283.536 5.10352C283.088 4.68774 282.523 4.47954 281.841 4.47949ZM127.013 4.47949C126.554 4.47949 126.127 4.58647 125.732 4.7998C125.348 5.00247 125.039 5.30662 124.805 5.71191C124.62 6.02254 124.509 6.39587 124.47 6.83203H129.444C129.412 6.09603 129.167 5.51952 128.708 5.10352C128.26 4.68774 127.695 4.47954 127.013 4.47949ZM75.3408 4.47949C74.8822 4.47949 74.4552 4.58647 74.0605 4.7998C73.6766 5.00247 73.3675 5.30662 73.1328 5.71191C72.9481 6.02254 72.8372 6.39587 72.7979 6.83203H77.7725C77.7405 6.09603 77.4948 5.51952 77.0361 5.10352C76.5882 4.68774 76.0232 4.47954 75.3408 4.47949ZM45.7939 4.47949C45.3353 4.47949 44.9083 4.58647 44.5137 4.7998C44.1297 5.00247 43.8206 5.30662 43.5859 5.71191C43.4013 6.02254 43.2903 6.39587 43.251 6.83203H48.2256C48.1936 6.09603 47.9479 5.51952 47.4893 5.10352C47.0414 4.68774 46.4764 4.47954 45.7939 4.47949ZM12.8877 4.47949C12.429 4.47949 12.0021 4.58647 11.6074 4.7998C11.2235 5.00247 10.9143 5.30662 10.6797 5.71191C10.495 6.02254 10.384 6.39587 10.3447 6.83203H15.3193C15.2873 6.09603 15.0417 5.51952 14.583 5.10352C14.1351 4.68774 13.5701 4.47954 12.8877 4.47949ZM1.75977 5.91992H3.93555C4.78871 5.91992 5.41294 5.71173 5.80762 5.2959C6.21295 4.8799 6.41602 4.34598 6.41602 3.69531C6.41596 3.03432 6.21858 2.51184 5.82422 2.12793C5.44023 1.73328 4.8052 1.53517 3.91992 1.53516H1.75977V5.91992ZM30.6045 0C30.8605 0 31.0794 0.085193 31.2607 0.255859C31.4419 0.415818 31.5322 0.628997 31.5322 0.895508C31.5322 1.16208 31.4419 1.38608 31.2607 1.56738C31.0794 1.73805 30.8605 1.82324 30.6045 1.82324C30.3379 1.82323 30.1139 1.73803 29.9326 1.56738C29.762 1.38607 29.6768 1.16213 29.6768 0.895508C29.6768 0.628941 29.762 0.415829 29.9326 0.255859C30.1139 0.0852097 30.3379 1.66868e-05 30.6045 0ZM116.87 0C117.126 0 117.345 0.085193 117.526 0.255859C117.708 0.415818 117.798 0.628997 117.798 0.895508C117.798 1.16208 117.708 1.38608 117.526 1.56738C117.345 1.73805 117.126 1.82324 116.87 1.82324C116.603 1.82323 116.38 1.73803 116.198 1.56738C116.028 1.38607 115.942 1.16213 115.942 0.895508C115.942 0.628941 116.028 0.415829 116.198 0.255859C116.38 0.0852097 116.603 1.66868e-05 116.87 0Z" fill="white"/>
</svg>
