<svg width="285" height="58" viewBox="0 0 285 58" fill="none" xmlns="http://www.w3.org/2000/svg">
<path d="M108.203 45.3438C108.666 45.3438 109.08 45.4086 109.447 45.5352H112.411V46.5439L110.889 46.6104C110.923 46.6615 110.956 46.7138 110.987 46.7676C111.233 47.1942 111.355 47.6747 111.355 48.208C111.355 48.7412 111.233 49.2268 110.987 49.6641C110.742 50.0906 110.384 50.4315 109.915 50.6875C109.446 50.9435 108.875 51.0713 108.203 51.0713C107.753 51.0713 107.346 51.0123 106.982 50.8975L106.161 51.6357C106.197 51.6613 106.232 51.6875 106.267 51.7119C106.373 51.7866 106.518 51.85 106.699 51.9033C106.881 51.9566 107.131 52.0052 107.451 52.0479C107.782 52.0905 108.214 52.1331 108.747 52.1758C109.483 52.2291 110.07 52.357 110.507 52.5596C110.955 52.7622 111.275 53.0346 111.467 53.376C111.669 53.7173 111.771 54.1225 111.771 54.5918C111.771 55.0504 111.643 55.4824 111.387 55.8877C111.141 56.3035 110.758 56.6445 110.235 56.9111C109.713 57.1778 109.04 57.3115 108.219 57.3115C107.494 57.3115 106.848 57.2154 106.283 57.0234C105.729 56.8421 105.297 56.5597 104.987 56.1758C104.678 55.7919 104.523 55.3171 104.523 54.752C104.523 54.5067 104.571 54.245 104.667 53.9678C104.774 53.6904 104.95 53.418 105.195 53.1514C105.323 53.018 105.476 52.8906 105.655 52.7705C105.442 52.6802 105.255 52.584 105.099 52.4795C104.918 52.3517 104.753 52.2185 104.604 52.0801V51.7119L105.979 50.3496C105.745 50.1528 105.553 49.9245 105.403 49.6641C105.158 49.2268 105.035 48.7412 105.035 48.208C105.035 47.6747 105.158 47.1942 105.403 46.7676C105.659 46.341 106.022 45.9991 106.491 45.7432C106.96 45.4766 107.531 45.3438 108.203 45.3438ZM4.36816 45.3438C5.15731 45.3438 5.8401 45.5302 6.41602 45.9033C7.00268 46.2767 7.45637 46.7838 7.77637 47.4238C8.10698 48.0531 8.27246 48.7734 8.27246 49.584C8.27241 50.3945 8.10698 51.1199 7.77637 51.7598C7.45637 52.389 7.00264 52.8854 6.41602 53.248C5.82949 53.6105 5.1416 53.792 4.35254 53.792C3.70187 53.792 3.12536 53.6583 2.62402 53.3916C2.1335 53.1249 1.75489 52.7514 1.48828 52.2715V57.1191H0.144531V45.5352H1.36035L1.47266 46.8477C1.64322 46.5918 1.86149 46.3518 2.12793 46.1279C2.3946 45.8933 2.71553 45.7061 3.08887 45.5674C3.46202 45.4182 3.88847 45.3438 4.36816 45.3438ZM73.6494 45.3438C74.4386 45.3438 75.1214 45.5302 75.6973 45.9033C76.2839 46.2767 76.7376 46.7838 77.0576 47.4238C77.3882 48.0531 77.5537 48.7734 77.5537 49.584C77.5537 50.3945 77.3882 51.1199 77.0576 51.7598C76.7376 52.389 76.2839 52.8854 75.6973 53.248C75.1107 53.6105 74.4229 53.792 73.6338 53.792C72.9831 53.792 72.4066 53.6583 71.9053 53.3916C71.4148 53.1249 71.0361 52.7514 70.7695 52.2715V57.1191H69.4258V45.5352H70.6416L70.7539 46.8477C70.9245 46.5918 71.1427 46.3518 71.4092 46.1279C71.6758 45.8933 71.9968 45.7061 72.3701 45.5674C72.7433 45.4182 73.1697 45.3438 73.6494 45.3438ZM106.926 53.0977C106.511 53.3017 106.233 53.5272 106.091 53.7754C105.92 54.0847 105.835 54.368 105.835 54.624C105.835 54.9758 105.936 55.2693 106.139 55.5039C106.341 55.7386 106.625 55.9139 106.987 56.0312C107.35 56.1485 107.76 56.208 108.219 56.208C108.677 56.208 109.073 56.1436 109.403 56.0156C109.734 55.8876 109.99 55.7062 110.171 55.4717C110.352 55.237 110.443 54.9596 110.443 54.6396C110.443 54.2663 110.305 53.9513 110.027 53.6953C109.75 53.45 109.222 53.3064 108.443 53.2637C107.846 53.2232 107.34 53.1669 106.926 53.0977ZM19.3535 45.3438C20.1426 45.3438 20.8096 45.5201 21.3535 45.8721C21.9079 46.224 22.3293 46.6879 22.6172 47.2637C22.9158 47.829 23.0654 48.4531 23.0654 49.1357V49.4717C23.0654 49.589 23.0595 49.7228 23.0488 49.8721H16.7666C16.7905 50.4354 16.9057 50.9152 17.1133 51.3115C17.3585 51.7593 17.6728 52.0953 18.0566 52.3193C18.4513 52.5433 18.8733 52.6553 19.3213 52.6553C19.8863 52.6552 20.3503 52.5332 20.7129 52.2881C21.0862 52.0321 21.3527 51.6903 21.5127 51.2637H22.8408C22.7128 51.7436 22.4889 52.1756 22.1689 52.5596C21.8489 52.9436 21.4487 53.2477 20.9688 53.4717C20.4995 53.6849 19.9504 53.792 19.3213 53.792C18.564 53.792 17.8914 53.6157 17.3047 53.2637C16.7289 52.9118 16.2759 52.421 15.9453 51.792C15.6146 51.152 15.4492 50.41 15.4492 49.5674C15.4492 48.7143 15.6088 47.973 15.9287 47.3438C16.2593 46.7146 16.7182 46.2241 17.3047 45.8721C17.902 45.5201 18.5855 45.3438 19.3535 45.3438ZM36.166 45.3438C36.9551 45.3438 37.6221 45.5201 38.166 45.8721C38.7204 46.224 39.1418 46.6879 39.4297 47.2637C39.7283 47.829 39.8779 48.4531 39.8779 49.1357V49.4717C39.8779 49.589 39.872 49.7228 39.8613 49.8721H33.5791C33.603 50.4354 33.7182 50.9152 33.9258 51.3115C34.171 51.7593 34.4853 52.0953 34.8691 52.3193C35.2638 52.5433 35.6858 52.6553 36.1338 52.6553C36.6988 52.6552 37.1628 52.5332 37.5254 52.2881C37.8987 52.0321 38.1652 51.6903 38.3252 51.2637H39.6533C39.5253 51.7436 39.3014 52.1756 38.9814 52.5596C38.6614 52.9436 38.2612 53.2477 37.7812 53.4717C37.312 53.6849 36.7629 53.792 36.1338 53.792C35.3765 53.792 34.7039 53.6157 34.1172 53.2637C33.5414 52.9118 33.0884 52.421 32.7578 51.792C32.4271 51.152 32.2617 50.41 32.2617 49.5674C32.2617 48.7143 32.4213 47.973 32.7412 47.3438C33.0718 46.7146 33.5307 46.2241 34.1172 45.8721C34.7145 45.5201 35.398 45.3438 36.166 45.3438ZM64.21 45.3438C65.074 45.3438 65.7733 45.5518 66.3066 45.9678C66.8398 46.3837 67.154 46.9863 67.25 47.7754H65.9229C65.8695 47.3703 65.693 47.056 65.3945 46.832C65.1065 46.5974 64.7063 46.4795 64.1943 46.4795C63.693 46.4795 63.3086 46.5805 63.042 46.7832C62.786 46.9859 62.6582 47.2533 62.6582 47.584C62.6583 47.797 62.7278 47.9887 62.8662 48.1592C63.0155 48.3192 63.2295 48.4579 63.5068 48.5752C63.7948 48.6925 64.1466 48.7886 64.5625 48.8633C65.0958 48.9593 65.5812 49.0881 66.0186 49.248C66.4558 49.408 66.8076 49.6478 67.0742 49.9678C67.3516 50.2771 67.4902 50.7199 67.4902 51.2959C67.4902 51.797 67.3623 52.2342 67.1064 52.6074C66.8612 52.9806 66.5092 53.274 66.0508 53.4873C65.5922 53.69 65.0532 53.792 64.4346 53.792C63.7628 53.792 63.176 53.6799 62.6748 53.4561C62.1841 53.2321 61.7889 52.922 61.4902 52.5273C61.2023 52.1221 61.0269 51.6474 60.9629 51.1035H62.3389C62.3922 51.3808 62.5041 51.6374 62.6748 51.8721C62.8454 52.1065 63.0746 52.2981 63.3623 52.4473C63.6609 52.5859 64.0236 52.6553 64.4502 52.6553C64.8232 52.6553 65.1327 52.6026 65.3779 52.4961C65.6233 52.3788 65.8055 52.2233 65.9229 52.0312C66.0507 51.8394 66.1143 51.6311 66.1143 51.4072C66.1142 51.0767 66.034 50.8259 65.874 50.6553C65.7247 50.4848 65.5006 50.3518 65.2021 50.2559C64.9035 50.1492 64.5408 50.0581 64.1143 49.9834C63.7623 49.9194 63.4155 49.8342 63.0742 49.7275C62.733 49.6209 62.4287 49.4822 62.1621 49.3115C61.8956 49.1302 61.6824 48.9112 61.5225 48.6553C61.3733 48.3994 61.2989 48.085 61.2988 47.7119C61.2988 47.2534 61.4159 46.848 61.6504 46.4961C61.885 46.1335 62.2209 45.8501 62.6582 45.6475C63.1061 45.4448 63.6235 45.3438 64.21 45.3438ZM83.0732 45.3438C83.8412 45.3438 84.5188 45.5201 85.1055 45.8721C85.7026 46.2134 86.1724 46.7039 86.5137 47.3438C86.8655 47.973 87.041 48.7143 87.041 49.5674C87.041 50.4206 86.8656 51.1677 86.5137 51.8076C86.1617 52.437 85.6862 52.9273 85.0889 53.2793C84.4916 53.6206 83.8089 53.792 83.041 53.792C82.2945 53.792 81.6227 53.6206 81.0254 53.2793C80.4281 52.9273 79.9585 52.4369 79.6172 51.8076C79.2759 51.1677 79.1055 50.4265 79.1055 49.584C79.1055 48.7201 79.2759 47.9731 79.6172 47.3438C79.9691 46.7039 80.4439 46.2134 81.041 45.8721C81.649 45.5201 82.3266 45.3438 83.0732 45.3438ZM99.6123 45.3438C100.359 45.3438 100.977 45.4825 101.468 45.7598C101.969 46.0264 102.343 46.4049 102.588 46.8955C102.833 47.3755 102.956 47.9462 102.956 48.6074V53.5996H101.756L101.676 52.1758C101.569 52.3997 101.43 52.6128 101.26 52.8154C101.1 53.0074 100.908 53.1778 100.684 53.3271C100.46 53.4658 100.204 53.5787 99.916 53.6641C99.6387 53.7494 99.3186 53.792 98.9561 53.792C98.3056 53.792 97.7615 53.6799 97.3242 53.4561C96.8869 53.2214 96.561 52.9172 96.3477 52.5439C96.1344 52.16 96.0284 51.7438 96.0283 51.2959C96.0283 50.7519 96.167 50.2933 96.4443 49.9199C96.7323 49.536 97.1317 49.2477 97.6436 49.0557C98.1662 48.853 98.7804 48.752 99.4844 48.752H101.612C101.612 48.2508 101.532 47.8345 101.372 47.5039C101.223 47.1626 100.999 46.906 100.7 46.7354C100.412 46.5647 100.049 46.4795 99.6123 46.4795C99.1005 46.4795 98.6574 46.6074 98.2842 46.8633C97.9108 47.1193 97.681 47.4987 97.5957 48H96.2197C96.2837 47.424 96.4759 46.9436 96.7959 46.5596C97.1265 46.1649 97.5427 45.8667 98.0439 45.6641C98.5453 45.4507 99.0683 45.3438 99.6123 45.3438ZM117.213 45.3438C118.002 45.3438 118.669 45.5201 119.213 45.8721C119.767 46.224 120.189 46.6879 120.477 47.2637C120.775 47.829 120.925 48.4531 120.925 49.1357V49.4717C120.925 49.589 120.919 49.7228 120.908 49.8721H114.626C114.65 50.4354 114.765 50.9152 114.973 51.3115C115.218 51.7593 115.532 52.0953 115.916 52.3193C116.311 52.5433 116.733 52.6553 117.181 52.6553C117.746 52.6552 118.21 52.5332 118.572 52.2881C118.946 52.0321 119.212 51.6903 119.372 51.2637H120.7C120.572 51.7436 120.348 52.1756 120.028 52.5596C119.708 52.9436 119.308 53.2477 118.828 53.4717C118.359 53.6849 117.81 53.792 117.181 53.792C116.423 53.792 115.751 53.6157 115.164 53.2637C114.588 52.9118 114.135 52.421 113.805 51.792C113.474 51.152 113.309 50.41 113.309 49.5674C113.309 48.7143 113.468 47.973 113.788 47.3438C114.119 46.7146 114.578 46.2241 115.164 45.8721C115.761 45.5201 116.445 45.3438 117.213 45.3438ZM123.218 51.8555C123.484 51.8555 123.703 51.9466 123.874 52.1279C124.045 52.2986 124.13 52.5116 124.13 52.7676C124.13 53.0236 124.045 53.2425 123.874 53.4238C123.703 53.5944 123.484 53.6797 123.218 53.6797C122.951 53.6796 122.727 53.5944 122.546 53.4238C122.375 53.2425 122.29 53.0236 122.29 52.7676C122.29 52.5117 122.375 52.2985 122.546 52.1279C122.727 51.9467 122.951 51.8556 123.218 51.8555ZM14.5596 46.752H14.0645C13.7231 46.752 13.3972 46.7995 13.0879 46.8955C12.7787 46.9808 12.5011 47.1246 12.2559 47.3271C12.0213 47.5297 11.8349 47.8074 11.6963 48.1592C11.5683 48.5005 11.5039 48.9275 11.5039 49.4395V53.5996H10.1602V45.5352H11.376L11.4717 47.0713C11.653 46.7087 11.8829 46.3995 12.1602 46.1436C12.448 45.8877 12.7892 45.6904 13.1836 45.5518C13.5888 45.4131 14.0478 45.3438 14.5596 45.3438V46.752ZM27.6699 52.3037L30.1182 45.5352H31.4941L28.4385 53.5996H26.8867L23.8301 45.5352H25.2383L27.6699 52.3037ZM45.6914 45.3438C46.3207 45.3438 46.8646 45.4716 47.3232 45.7275C47.7819 45.9728 48.1395 46.3514 48.3955 46.8633C48.6515 47.3645 48.7793 48.0047 48.7793 48.7832V53.5996H47.4355V48.9277C47.4355 48.1171 47.2542 47.5089 46.8916 47.1035C46.5397 46.6983 46.0382 46.4962 45.3877 46.4961C44.9397 46.4961 44.5395 46.608 44.1875 46.832C43.8355 47.0454 43.5522 47.3594 43.3389 47.7754C43.1362 48.1807 43.0352 48.6879 43.0352 49.2959V53.5996H41.6914V45.5352H42.9072L42.9717 46.9434C43.2277 46.4422 43.5903 46.0527 44.0596 45.7754C44.5395 45.4875 45.0835 45.3438 45.6914 45.3438ZM53.0547 45.5352H55.3906V46.6719H53.0547V51.168C53.0547 51.6688 53.156 52.01 53.3584 52.1914C53.5611 52.3621 53.9187 52.4473 54.4307 52.4473H55.2949V53.5996H54.0469C53.567 53.5996 53.1508 53.5253 52.7988 53.376C52.4469 53.2267 52.1744 52.9759 51.9824 52.624C51.8011 52.2614 51.711 51.7758 51.7109 51.168V46.6719H50.3027V45.5352H51.7109L51.8867 43.584H53.0547V45.5352ZM90.3975 53.5996H89.0537V45.5352H90.3975V53.5996ZM94.1133 53.5996H92.7695V42.0801H94.1133V53.5996ZM99.5957 49.792C99.0732 49.792 98.652 49.8555 98.332 49.9834C98.012 50.1007 97.7822 50.2721 97.6436 50.4961C97.5051 50.7093 97.4356 50.9544 97.4355 51.2314C97.4355 51.5194 97.5 51.7701 97.6279 51.9834C97.7666 52.1967 97.9638 52.3622 98.2197 52.4795C98.4864 52.5968 98.8014 52.6553 99.1641 52.6553C99.5373 52.6553 99.8733 52.5809 100.172 52.4316C100.481 52.2717 100.743 52.0586 100.956 51.792C101.169 51.5148 101.329 51.2104 101.436 50.8799C101.553 50.5493 101.612 50.2024 101.612 49.8398V49.792H99.5957ZM83.0732 46.4961C82.6253 46.4961 82.1983 46.613 81.793 46.8477C81.3984 47.0717 81.0783 47.4135 80.833 47.8721C80.5985 48.3199 80.4815 48.8851 80.4814 49.5674C80.4814 50.2394 80.5984 50.805 80.833 51.2637C81.0783 51.7223 81.3933 52.069 81.7773 52.3037C82.172 52.5277 82.599 52.6396 83.0576 52.6396C83.516 52.6396 83.9424 52.5275 84.3369 52.3037C84.7315 52.0691 85.0516 51.7222 85.2969 51.2637C85.5422 50.805 85.665 50.2394 85.665 49.5674C85.665 48.8849 85.5421 48.32 85.2969 47.8721C85.0622 47.4135 84.7481 47.0717 84.3535 46.8477C83.9695 46.613 83.5426 46.4961 83.0732 46.4961ZM4.20801 46.5117C3.67498 46.5118 3.20594 46.6397 2.80078 46.8955C2.39545 47.1515 2.08045 47.5091 1.85645 47.9678C1.63251 48.4264 1.52054 48.9595 1.52051 49.5674C1.52051 50.1861 1.63245 50.7249 1.85645 51.1836C2.08045 51.6316 2.39545 51.9833 2.80078 52.2393C3.20599 52.4951 3.67489 52.624 4.20801 52.624C4.73067 52.624 5.19525 52.4953 5.60059 52.2393C6.00573 51.9833 6.32 51.6314 6.54395 51.1836C6.77861 50.7249 6.89648 50.1861 6.89648 49.5674C6.89646 48.9595 6.77858 48.4264 6.54395 47.9678C6.31996 47.5092 6.00587 47.1515 5.60059 46.8955C5.19525 46.6395 4.73067 46.5117 4.20801 46.5117ZM73.4893 46.5117C72.9562 46.5118 72.4872 46.6397 72.082 46.8955C71.6767 47.1515 71.3617 47.5091 71.1377 47.9678C70.9138 48.4264 70.8018 48.9595 70.8018 49.5674C70.8018 50.1861 70.9137 50.7249 71.1377 51.1836C71.3617 51.6316 71.6767 51.9833 72.082 52.2393C72.4872 52.4951 72.9561 52.624 73.4893 52.624C74.0119 52.624 74.4765 52.4953 74.8818 52.2393C75.287 51.9833 75.6012 51.6314 75.8252 51.1836C76.0599 50.7249 76.1777 50.1861 76.1777 49.5674C76.1777 48.9595 76.0598 48.4264 75.8252 47.9678C75.6012 47.5092 75.2871 47.1515 74.8818 46.8955C74.4765 46.6395 74.0119 46.5117 73.4893 46.5117ZM108.203 46.4639C107.638 46.4639 107.179 46.6126 106.827 46.9111C106.486 47.2098 106.315 47.6427 106.315 48.208C106.316 48.7838 106.486 49.2209 106.827 49.5195C107.168 49.8182 107.627 49.9678 108.203 49.9678C108.779 49.9678 109.233 49.8182 109.563 49.5195C109.894 49.2209 110.059 48.7836 110.059 48.208C110.059 47.6427 109.894 47.2098 109.563 46.9111C109.233 46.6125 108.779 46.4639 108.203 46.4639ZM117.181 46.4795C116.722 46.4795 116.295 46.5865 115.9 46.7998C115.516 47.0025 115.207 47.3066 114.973 47.7119C114.788 48.0225 114.677 48.3959 114.638 48.832H119.612C119.58 48.096 119.335 47.5195 118.876 47.1035C118.428 46.6877 117.863 46.4795 117.181 46.4795ZM36.1338 46.4795C35.6751 46.4795 35.2482 46.5865 34.8535 46.7998C34.4696 47.0025 34.1604 47.3066 33.9258 47.7119C33.7411 48.0225 33.6301 48.3959 33.5908 48.832H38.5654C38.5334 48.096 38.2878 47.5195 37.8291 47.1035C37.3812 46.6877 36.8162 46.4795 36.1338 46.4795ZM19.3213 46.4795C18.8626 46.4795 18.4357 46.5865 18.041 46.7998C17.6571 47.0025 17.3479 47.3066 17.1133 47.7119C16.9286 48.0225 16.8176 48.3959 16.7783 48.832H21.7529C21.7209 48.096 21.4753 47.5195 21.0166 47.1035C20.5687 46.6877 20.0037 46.4795 19.3213 46.4795ZM89.7256 42C89.9816 42 90.2005 42.0852 90.3818 42.2559C90.563 42.4158 90.6533 42.629 90.6533 42.8955C90.6533 43.1621 90.563 43.3861 90.3818 43.5674C90.2005 43.738 89.9816 43.8232 89.7256 43.8232C89.459 43.8232 89.235 43.738 89.0537 43.5674C88.8831 43.3861 88.7979 43.1621 88.7979 42.8955C88.7979 42.6289 88.8831 42.4158 89.0537 42.2559C89.235 42.0852 89.459 42 89.7256 42ZM71.915 24.3438C72.7042 24.3438 73.387 24.5302 73.9629 24.9033C74.5496 25.2767 75.0032 25.7838 75.3232 26.4238C75.6539 27.0531 75.8193 27.7734 75.8193 28.584C75.8193 29.3945 75.6539 30.1199 75.3232 30.7598C75.0032 31.389 74.5495 31.8854 73.9629 32.248C73.3764 32.6105 72.6885 32.792 71.8994 32.792C71.2487 32.792 70.6722 32.6583 70.1709 32.3916C69.6804 32.1249 69.3018 31.7514 69.0352 31.2715V36.1191H67.6914V24.5352H68.9072L69.0195 25.8477C69.1901 25.5918 69.4084 25.3518 69.6748 25.1279C69.9415 24.8933 70.2624 24.706 70.6357 24.5674C71.0089 24.4182 71.4353 24.3438 71.915 24.3438ZM1.34473 29.2236C1.34473 30.0234 1.52029 30.6259 1.87207 31.0312C2.22406 31.4366 2.72038 31.6396 3.36035 31.6396C3.80833 31.6396 4.21352 31.5326 4.57617 31.3193C4.9388 31.0954 5.22214 30.7812 5.4248 30.376C5.63814 29.96 5.74414 29.4528 5.74414 28.8555V24.5352H7.08887V32.5996H5.87207L5.79199 31.1914C5.54666 31.6927 5.1841 32.088 4.7041 32.376C4.2242 32.6532 3.6801 32.792 3.07227 32.792C2.45371 32.792 1.9097 32.6691 1.44043 32.4238C0.981847 32.1785 0.624154 31.7999 0.368164 31.2881C0.122831 30.7761 0 30.1352 0 29.3672V24.5352H1.34473V29.2236ZM41.1504 24.3438C41.9395 24.3438 42.6065 24.5201 43.1504 24.8721C43.7048 25.224 44.1262 25.6879 44.4141 26.2637C44.7127 26.829 44.8623 27.4531 44.8623 28.1357V28.4717C44.8623 28.589 44.8564 28.7228 44.8457 28.8721H38.5635C38.5874 29.4354 38.7025 29.9152 38.9102 30.3115C39.1554 30.7593 39.4697 31.0953 39.8535 31.3193C40.2482 31.5433 40.6702 31.6553 41.1182 31.6553C41.6832 31.6552 42.1472 31.5332 42.5098 31.2881C42.883 31.0321 43.1496 30.6903 43.3096 30.2637H44.6377C44.5097 30.7436 44.2858 31.1756 43.9658 31.5596C43.6458 31.9436 43.2456 32.2477 42.7656 32.4717C42.2964 32.6849 41.7473 32.792 41.1182 32.792C40.3608 32.792 39.6882 32.6157 39.1016 32.2637C38.5258 31.9118 38.0728 31.421 37.7422 30.792C37.4115 30.152 37.2461 29.41 37.2461 28.5674C37.2461 27.7143 37.4057 26.973 37.7256 26.3438C38.0562 25.7146 38.5151 25.2241 39.1016 24.8721C39.6989 24.5201 40.3824 24.3438 41.1504 24.3438ZM59.7197 29.2236C59.7197 30.0234 59.8953 30.6259 60.2471 31.0312C60.5991 31.4366 61.0954 31.6396 61.7354 31.6396C62.1833 31.6396 62.5885 31.5326 62.9512 31.3193C63.3138 31.0954 63.5971 30.7812 63.7998 30.376C64.0131 29.96 64.1191 29.4528 64.1191 28.8555V24.5352H65.4639V32.5996H64.2471L64.167 31.1914C63.9217 31.6927 63.5591 32.088 63.0791 32.376C62.5992 32.6532 62.0551 32.792 61.4473 32.792C60.8287 32.792 60.2847 32.6691 59.8154 32.4238C59.3568 32.1785 58.9992 31.7999 58.7432 31.2881C58.4978 30.7761 58.375 30.1352 58.375 29.3672V24.5352H59.7197V29.2236ZM87.0098 24.3438C87.7989 24.3438 88.4659 24.5201 89.0098 24.8721C89.5642 25.224 89.9855 25.6879 90.2734 26.2637C90.5721 26.829 90.7217 27.4531 90.7217 28.1357V28.4717C90.7217 28.589 90.7157 28.7228 90.7051 28.8721H84.4229C84.4468 29.4354 84.5619 29.9152 84.7695 30.3115C85.0148 30.7593 85.3291 31.0953 85.7129 31.3193C86.1076 31.5433 86.5295 31.6553 86.9775 31.6553C87.5426 31.6552 88.0066 31.5332 88.3691 31.2881C88.7424 31.0321 89.0089 30.6903 89.1689 30.2637H90.4971C90.3691 30.7436 90.1452 31.1756 89.8252 31.5596C89.5052 31.9436 89.105 32.2477 88.625 32.4717C88.1558 32.6849 87.6067 32.792 86.9775 32.792C86.2202 32.792 85.5476 32.6157 84.9609 32.2637C84.3852 31.9118 83.9322 31.421 83.6016 30.792C83.2709 30.152 83.1055 29.41 83.1055 28.5674C83.1055 27.7143 83.2651 26.973 83.585 26.3438C83.9155 25.7146 84.3745 25.2241 84.9609 24.8721C85.5583 24.5201 86.2418 24.3438 87.0098 24.3438ZM100.327 32.5996H99.1113L98.999 31.2715C98.8284 31.5382 98.6094 31.7888 98.3428 32.0234C98.0761 32.2474 97.7561 32.4347 97.3828 32.584C97.0096 32.7226 96.5774 32.792 96.0869 32.792C95.3084 32.792 94.6256 32.6106 94.0391 32.248C93.4524 31.8747 92.9987 31.3675 92.6787 30.7275C92.3588 30.0876 92.1992 29.3623 92.1992 28.5518C92.1992 27.7411 92.3588 27.0209 92.6787 26.3916C92.9987 25.7516 93.4524 25.2504 94.0391 24.8877C94.6364 24.525 95.3249 24.3438 96.1035 24.3438C96.7646 24.3438 97.3405 24.4766 97.8311 24.7432C98.3324 25.0098 98.7167 25.3833 98.9834 25.8633V21.0801H100.327V32.5996ZM110.448 24.3438C111.408 24.3438 112.209 24.5944 112.849 25.0957C113.488 25.5863 113.894 26.2482 114.064 27.0801H112.688C112.582 26.5787 112.32 26.1885 111.904 25.9111C111.488 25.6339 110.998 25.4961 110.433 25.4961C109.974 25.4961 109.547 25.613 109.152 25.8477C108.758 26.0717 108.443 26.4134 108.208 26.8721C107.974 27.3306 107.856 27.8957 107.856 28.5674C107.856 29.0686 107.926 29.5166 108.064 29.9111C108.203 30.2951 108.389 30.6161 108.624 30.8721C108.859 31.128 109.131 31.3252 109.44 31.4639C109.76 31.5918 110.091 31.6553 110.433 31.6553C110.816 31.6552 111.163 31.5968 111.473 31.4795C111.782 31.3516 112.043 31.165 112.256 30.9199C112.469 30.6746 112.614 30.3863 112.688 30.0557H114.064C113.894 30.8663 113.483 31.528 112.832 32.04C112.192 32.5412 111.397 32.792 110.448 32.792C109.691 32.792 109.008 32.6156 108.4 32.2637C107.803 31.9117 107.334 31.4212 106.992 30.792C106.651 30.1521 106.481 29.4158 106.48 28.584C106.48 27.7307 106.651 26.9887 106.992 26.3594C107.334 25.7301 107.803 25.2397 108.4 24.8877C109.008 24.5251 109.691 24.3438 110.448 24.3438ZM119.604 24.3438C120.372 24.3438 121.05 24.5201 121.637 24.8721C122.234 25.2134 122.704 25.7039 123.045 26.3438C123.397 26.973 123.572 27.7143 123.572 28.5674C123.572 29.4206 123.397 30.1677 123.045 30.8076C122.693 31.437 122.217 31.9273 121.62 32.2793C121.023 32.6206 120.34 32.792 119.572 32.792C118.826 32.792 118.154 32.6206 117.557 32.2793C116.959 31.9273 116.49 31.4369 116.148 30.8076C115.807 30.1677 115.637 29.4265 115.637 28.584C115.637 27.7201 115.807 26.9731 116.148 26.3438C116.5 25.7039 116.975 25.2134 117.572 24.8721C118.18 24.5201 118.858 24.3438 119.604 24.3438ZM136.812 32.5996H135.596L135.483 31.2715C135.313 31.5382 135.094 31.7888 134.827 32.0234C134.561 32.2474 134.24 32.4347 133.867 32.584C133.494 32.7226 133.062 32.792 132.571 32.792C131.793 32.792 131.11 32.6106 130.523 32.248C129.937 31.8747 129.483 31.3675 129.163 30.7275C128.843 30.0876 128.684 29.3623 128.684 28.5518C128.684 27.7411 128.843 27.0209 129.163 26.3916C129.483 25.7516 129.937 25.2504 130.523 24.8877C131.121 24.525 131.809 24.3438 132.588 24.3438C133.249 24.3438 133.825 24.4766 134.315 24.7432C134.817 25.0098 135.201 25.3833 135.468 25.8633V21.0801H136.812V32.5996ZM146.933 24.3438C147.893 24.3438 148.693 24.5944 149.333 25.0957C149.973 25.5863 150.378 26.2482 150.549 27.0801H149.173C149.066 26.5787 148.805 26.1885 148.389 25.9111C147.973 25.6339 147.482 25.4961 146.917 25.4961C146.458 25.4961 146.031 25.613 145.637 25.8477C145.242 26.0717 144.927 26.4134 144.692 26.8721C144.458 27.3306 144.341 27.8957 144.341 28.5674C144.341 29.0686 144.41 29.5166 144.549 29.9111C144.688 30.2951 144.874 30.6161 145.108 30.8721C145.343 31.128 145.616 31.3252 145.925 31.4639C146.245 31.5918 146.576 31.6553 146.917 31.6553C147.301 31.6552 147.648 31.5968 147.957 31.4795C148.266 31.3516 148.527 31.165 148.74 30.9199C148.954 30.6746 149.098 30.3863 149.173 30.0557H150.549C150.378 30.8663 149.967 31.528 149.316 32.04C148.676 32.5412 147.882 32.792 146.933 32.792C146.175 32.792 145.493 32.6156 144.885 32.2637C144.288 31.9117 143.818 31.4212 143.477 30.792C143.135 30.1521 142.965 29.4158 142.965 28.584C142.965 27.7307 143.135 26.9887 143.477 26.3594C143.818 25.7301 144.287 25.2397 144.885 24.8877C145.493 24.5251 146.175 24.3438 146.933 24.3438ZM164.94 24.3438C165.687 24.3438 166.305 24.4825 166.796 24.7598C167.297 25.0264 167.671 25.4049 167.916 25.8955C168.161 26.3755 168.284 26.9462 168.284 27.6074V32.5996H167.084L167.004 31.1758C166.897 31.3997 166.758 31.6128 166.588 31.8154C166.428 32.0074 166.236 32.1778 166.012 32.3271C165.788 32.4658 165.532 32.5787 165.244 32.6641C164.967 32.7494 164.647 32.792 164.284 32.792C163.634 32.792 163.09 32.6799 162.652 32.4561C162.215 32.2214 161.889 31.9172 161.676 31.5439C161.462 31.16 161.356 30.7438 161.356 30.2959C161.356 29.7519 161.495 29.2933 161.772 28.9199C162.06 28.536 162.46 28.2477 162.972 28.0557C163.494 27.853 164.109 27.752 164.812 27.752H166.94C166.94 27.2508 166.86 26.8345 166.7 26.5039C166.551 26.1626 166.327 25.906 166.028 25.7354C165.74 25.5647 165.378 25.4795 164.94 25.4795C164.429 25.4795 163.986 25.6074 163.612 25.8633C163.239 26.1193 163.009 26.4987 162.924 27H161.548C161.612 26.424 161.804 25.9436 162.124 25.5596C162.455 25.1649 162.871 24.8667 163.372 24.6641C163.873 24.4507 164.396 24.3438 164.94 24.3438ZM191.276 24.3438C192.236 24.3438 193.037 24.5944 193.677 25.0957C194.317 25.5863 194.722 26.2482 194.893 27.0801H193.517C193.41 26.5787 193.148 26.1885 192.732 25.9111C192.317 25.6339 191.826 25.4961 191.261 25.4961C190.802 25.4961 190.375 25.613 189.98 25.8477C189.586 26.0717 189.271 26.4134 189.036 26.8721C188.802 27.3306 188.685 27.8957 188.685 28.5674C188.685 29.0686 188.754 29.5166 188.893 29.9111C189.031 30.2951 189.217 30.6161 189.452 30.8721C189.687 31.128 189.959 31.3252 190.269 31.4639C190.588 31.5918 190.919 31.6553 191.261 31.6553C191.645 31.6552 191.992 31.5968 192.301 31.4795C192.61 31.3516 192.871 31.165 193.084 30.9199C193.297 30.6746 193.442 30.3863 193.517 30.0557H194.893C194.722 30.8663 194.311 31.528 193.66 32.04C193.02 32.5412 192.226 32.792 191.276 32.792C190.519 32.792 189.836 32.6156 189.229 32.2637C188.631 31.9117 188.162 31.4212 187.82 30.792C187.479 30.1521 187.309 29.4158 187.309 28.584C187.309 27.7307 187.479 26.9887 187.82 26.3594C188.162 25.7301 188.631 25.2397 189.229 24.8877C189.836 24.5251 190.519 24.3438 191.276 24.3438ZM200.433 24.3438C201.201 24.3438 201.878 24.5201 202.465 24.8721C203.062 25.2134 203.532 25.7039 203.873 26.3438C204.225 26.973 204.4 27.7143 204.4 28.5674C204.4 29.4206 204.225 30.1677 203.873 30.8076C203.521 31.437 203.046 31.9273 202.448 32.2793C201.851 32.6206 201.168 32.792 200.4 32.792C199.654 32.792 198.982 32.6206 198.385 32.2793C197.787 31.9273 197.318 31.4369 196.977 30.8076C196.635 30.1677 196.465 29.4265 196.465 28.584C196.465 27.7201 196.635 26.9731 196.977 26.3438C197.328 25.7039 197.803 25.2134 198.4 24.8721C199.008 24.5201 199.686 24.3438 200.433 24.3438ZM223.265 32.5996H222.049L221.937 31.2715C221.766 31.5382 221.547 31.7888 221.28 32.0234C221.014 32.2474 220.694 32.4347 220.32 32.584C219.947 32.7226 219.515 32.792 219.024 32.792C218.246 32.792 217.563 32.6106 216.977 32.248C216.39 31.8747 215.936 31.3675 215.616 30.7275C215.296 30.0876 215.137 29.3623 215.137 28.5518C215.137 27.7411 215.296 27.0209 215.616 26.3916C215.936 25.7516 216.39 25.2504 216.977 24.8877C217.574 24.525 218.262 24.3438 219.041 24.3438C219.702 24.3438 220.278 24.4766 220.769 24.7432C221.27 25.0098 221.654 25.3833 221.921 25.8633V21.0801H223.265V32.5996ZM243.089 24.3438C243.857 24.3438 244.534 24.5201 245.121 24.8721C245.718 25.2134 246.188 25.7039 246.529 26.3438C246.881 26.973 247.057 27.7143 247.057 28.5674C247.057 29.4206 246.881 30.1677 246.529 30.8076C246.177 31.437 245.702 31.9273 245.104 32.2793C244.507 32.6206 243.825 32.792 243.057 32.792C242.31 32.792 241.638 32.6206 241.041 32.2793C240.444 31.9273 239.974 31.4369 239.633 30.8076C239.292 30.1677 239.121 29.4265 239.121 28.584C239.121 27.7201 239.292 26.9731 239.633 26.3438C239.985 25.7039 240.46 25.2134 241.057 24.8721C241.665 24.5201 242.342 24.3438 243.089 24.3438ZM260.944 24.3438C261.808 24.3438 262.508 24.5518 263.041 24.9678C263.574 25.3837 263.888 25.9863 263.984 26.7754H262.657C262.604 26.3703 262.427 26.056 262.129 25.832C261.841 25.5974 261.441 25.4795 260.929 25.4795C260.427 25.4795 260.043 25.5805 259.776 25.7832C259.52 25.9859 259.393 26.2533 259.393 26.584C259.393 26.797 259.462 26.9887 259.601 27.1592C259.75 27.3192 259.964 27.4579 260.241 27.5752C260.529 27.6925 260.881 27.7886 261.297 27.8633C261.83 27.9593 262.316 28.088 262.753 28.248C263.19 28.408 263.542 28.6478 263.809 28.9678C264.086 29.2771 264.225 29.7199 264.225 30.2959C264.225 30.797 264.097 31.2342 263.841 31.6074C263.596 31.9806 263.244 32.274 262.785 32.4873C262.327 32.69 261.788 32.792 261.169 32.792C260.497 32.792 259.91 32.6799 259.409 32.4561C258.919 32.2321 258.523 31.922 258.225 31.5273C257.937 31.1221 257.761 30.6474 257.697 30.1035H259.073C259.127 30.3808 259.239 30.6374 259.409 30.8721C259.58 31.1065 259.809 31.2981 260.097 31.4473C260.395 31.5859 260.758 31.6553 261.185 31.6553C261.558 31.6553 261.867 31.6026 262.112 31.4961C262.358 31.3788 262.54 31.2232 262.657 31.0312C262.785 30.8394 262.849 30.6311 262.849 30.4072C262.849 30.0767 262.768 29.8259 262.608 29.6553C262.459 29.4848 262.235 29.3518 261.937 29.2559C261.638 29.1492 261.275 29.0581 260.849 28.9834C260.497 28.9194 260.15 28.8342 259.809 28.7275C259.467 28.6209 259.163 28.4822 258.896 28.3115C258.63 28.1302 258.417 27.9112 258.257 27.6553C258.108 27.3994 258.033 27.085 258.033 26.7119C258.033 26.2534 258.15 25.848 258.385 25.4961C258.619 25.1335 258.955 24.8501 259.393 24.6475C259.84 24.4448 260.358 24.3438 260.944 24.3438ZM280.089 24.3438C280.857 24.3438 281.534 24.5201 282.121 24.8721C282.718 25.2134 283.188 25.7039 283.529 26.3438C283.881 26.973 284.057 27.7143 284.057 28.5674C284.057 29.4206 283.881 30.1677 283.529 30.8076C283.177 31.437 282.702 31.9273 282.104 32.2793C281.507 32.6206 280.825 32.792 280.057 32.792C279.31 32.792 278.638 32.6206 278.041 32.2793C277.444 31.9273 276.974 31.4369 276.633 30.8076C276.292 30.1677 276.121 29.4265 276.121 28.584C276.121 27.7201 276.292 26.9731 276.633 26.3438C276.985 25.7039 277.46 25.2134 278.057 24.8721C278.665 24.5201 279.342 24.3438 280.089 24.3438ZM13.3164 24.3438C13.9457 24.3438 14.4896 24.4716 14.9482 24.7275C15.4069 24.9728 15.7645 25.3514 16.0205 25.8633C16.2765 26.3645 16.4043 27.0047 16.4043 27.7832V32.5996H15.0605V27.9277C15.0605 27.1171 14.8792 26.5088 14.5166 26.1035C14.1647 25.6983 13.6632 25.4962 13.0127 25.4961C12.5647 25.4961 12.1645 25.608 11.8125 25.832C11.4605 26.0454 11.1772 26.3594 10.9639 26.7754C10.7612 27.1807 10.6602 27.6879 10.6602 28.2959V32.5996H9.31641V24.5352H10.5322L10.5967 25.9434C10.8527 25.4422 11.2153 25.0527 11.6846 24.7754C12.1645 24.4875 12.7085 24.3438 13.3164 24.3438ZM19.9756 32.5996H18.6318V24.5352H19.9756V32.5996ZM26.3477 24.3438C26.9769 24.3438 27.5209 24.4716 27.9795 24.7275C28.4381 24.9728 28.7958 25.3514 29.0518 25.8633C29.3077 26.3645 29.4355 27.0047 29.4355 27.7832V32.5996H28.0918V27.9277C28.0918 27.1171 27.9105 26.5088 27.5479 26.1035C27.1959 25.6983 26.6944 25.4962 26.0439 25.4961C25.5959 25.4961 25.1957 25.608 24.8438 25.832C24.4918 26.0454 24.2084 26.3594 23.9951 26.7754C23.7924 27.1807 23.6914 27.6879 23.6914 28.2959V32.5996H22.3477V24.5352H23.5635L23.6279 25.9434C23.8839 25.4422 24.2466 25.0527 24.7158 24.7754C25.1957 24.4875 25.7398 24.3438 26.3477 24.3438ZM33.7109 24.5352H36.0469V25.6719H33.7109V30.168C33.711 30.6688 33.8122 31.01 34.0146 31.1914C34.2173 31.3621 34.575 31.4473 35.0869 31.4473H35.9512V32.5996H34.7031C34.2232 32.5996 33.807 32.5253 33.4551 32.376C33.1031 32.2267 32.8307 31.9759 32.6387 31.624C32.4574 31.2614 32.3672 30.7758 32.3672 30.168V25.6719H30.959V24.5352H32.3672L32.543 22.584H33.7109V24.5352ZM51.0752 25.752H50.5801C50.2387 25.752 49.9128 25.7995 49.6035 25.8955C49.2943 25.9808 49.0168 26.1246 48.7715 26.3271C48.5369 26.5297 48.3506 26.8074 48.2119 27.1592C48.0839 27.5005 48.0195 27.9275 48.0195 28.4395V32.5996H46.6758V24.5352H47.8916L47.9873 26.0713C48.1686 25.7087 48.3985 25.3995 48.6758 25.1436C48.9637 24.8877 49.3048 24.6904 49.6992 24.5518C50.1044 24.4131 50.5634 24.3438 51.0752 24.3438V25.752ZM56.9971 25.752H56.502C56.1606 25.752 55.8347 25.7995 55.5254 25.8955C55.2162 25.9808 54.9386 26.1246 54.6934 26.3271C54.4588 26.5297 54.2724 26.8074 54.1338 27.1592C54.0058 27.5005 53.9414 27.9275 53.9414 28.4395V32.5996H52.5977V24.5352H53.8135L53.9092 26.0713C54.0905 25.7087 54.3204 25.3995 54.5977 25.1436C54.8855 24.8877 55.2267 24.6904 55.6211 24.5518C56.0263 24.4131 56.4853 24.3438 56.9971 24.3438V25.752ZM79.5703 24.5352H81.9062V25.6719H79.5703V30.168C79.5704 30.6688 79.6716 31.01 79.874 31.1914C80.0767 31.3621 80.4344 31.4473 80.9463 31.4473H81.8105V32.5996H80.5625C80.0826 32.5996 79.6664 32.5253 79.3145 32.376C78.9625 32.2267 78.69 31.9759 78.498 31.624C78.3167 31.2614 78.2266 30.7758 78.2266 30.168V25.6719H76.8184V24.5352H78.2266L78.4023 22.584H79.5703V24.5352ZM126.801 32.5996H125.457V21.0801H126.801V32.5996ZM153.801 25.8955C154.067 25.4155 154.441 25.0371 154.921 24.7598C155.411 24.4825 155.945 24.3438 156.521 24.3438C157.139 24.3438 157.678 24.4716 158.137 24.7275C158.595 24.9729 158.948 25.3513 159.193 25.8633C159.439 26.3753 159.561 27.0211 159.561 27.7998V32.5996H158.233V27.9434C158.233 27.1328 158.062 26.5244 157.721 26.1191C157.379 25.7035 156.884 25.4962 156.233 25.4961C155.775 25.4961 155.359 25.6081 154.985 25.832C154.623 26.056 154.334 26.376 154.121 26.792C153.908 27.2078 153.801 27.7195 153.801 28.3271V32.5996H152.457V21.0801H153.801V25.8955ZM171.835 32.5996H170.491V24.5352H171.835V32.5996ZM178.207 24.3438C178.836 24.3438 179.38 24.4716 179.839 24.7275C180.297 24.9728 180.655 25.3514 180.911 25.8633C181.167 26.3645 181.295 27.0047 181.295 27.7832V32.5996H179.951V27.9277C179.951 27.1171 179.77 26.5088 179.407 26.1035C179.055 25.6983 178.554 25.4962 177.903 25.4961C177.455 25.4961 177.055 25.608 176.703 25.832C176.351 26.0454 176.068 26.3594 175.854 26.7754C175.652 27.1807 175.551 27.6879 175.551 28.2959V32.5996H174.207V24.5352H175.423L175.487 25.9434C175.743 25.4422 176.106 25.0527 176.575 24.7754C177.055 24.4875 177.599 24.3438 178.207 24.3438ZM210.285 24.3438C210.914 24.3438 211.458 24.4716 211.917 24.7275C212.376 24.9728 212.733 25.3514 212.989 25.8633C213.245 26.3645 213.373 27.0047 213.373 27.7832V32.5996H212.029V27.9277C212.029 27.1171 211.848 26.5088 211.485 26.1035C211.133 25.6983 210.632 25.4962 209.981 25.4961C209.533 25.4961 209.133 25.608 208.781 25.832C208.429 26.0454 208.146 26.3594 207.933 26.7754C207.73 27.1807 207.629 27.6879 207.629 28.2959V32.5996H206.285V24.5352H207.501L207.565 25.9434C207.821 25.4422 208.184 25.0527 208.653 24.7754C209.133 24.4875 209.677 24.3438 210.285 24.3438ZM226.976 32.5996H225.632V24.5352H226.976V32.5996ZM231.523 24.5352H233.859V25.6719H231.523V30.168C231.523 30.6688 231.625 31.01 231.827 31.1914C232.03 31.3621 232.387 31.4473 232.899 31.4473H233.764V32.5996H232.516C232.036 32.5996 231.62 32.5253 231.268 32.376C230.916 32.2267 230.643 31.9759 230.451 31.624C230.27 31.2614 230.18 30.7758 230.18 30.168V25.6719H228.771V24.5352H230.18L230.355 22.584H231.523V24.5352ZM237.085 32.5996H235.741V24.5352H237.085V32.5996ZM252.941 24.3438C253.571 24.3438 254.115 24.4716 254.573 24.7275C255.032 24.9728 255.39 25.3514 255.646 25.8633C255.901 26.3645 256.029 27.0047 256.029 27.7832V32.5996H254.686V27.9277C254.686 27.1171 254.504 26.5088 254.142 26.1035C253.79 25.6983 253.288 25.4962 252.638 25.4961C252.19 25.4961 251.79 25.608 251.438 25.832C251.086 26.0454 250.802 26.3594 250.589 26.7754C250.386 27.1807 250.285 27.6879 250.285 28.2959V32.5996H248.941V24.5352H250.157L250.222 25.9434C250.478 25.4422 250.84 25.0527 251.31 24.7754C251.789 24.4875 252.334 24.3438 252.941 24.3438ZM272.586 24.5352H274.922V25.6719H272.586V30.168C272.586 30.6688 272.687 31.01 272.89 31.1914C273.092 31.3621 273.45 31.4473 273.962 31.4473H274.826V32.5996H273.578C273.098 32.5996 272.682 32.5253 272.33 32.376C271.978 32.2267 271.706 31.9759 271.514 31.624C271.332 31.2614 271.242 30.7758 271.242 30.168V25.6719H269.834V24.5352H271.242L271.418 22.584H272.586V24.5352ZM164.924 28.792C164.401 28.792 163.98 28.8555 163.66 28.9834C163.34 29.1007 163.11 29.2721 162.972 29.4961C162.833 29.7093 162.764 29.9544 162.764 30.2314C162.764 30.5194 162.828 30.7701 162.956 30.9834C163.095 31.1967 163.292 31.3622 163.548 31.4795C163.815 31.5968 164.13 31.6553 164.492 31.6553C164.865 31.6553 165.201 31.5809 165.5 31.4316C165.809 31.2717 166.071 31.0586 166.284 30.792C166.497 30.5148 166.657 30.2104 166.764 29.8799C166.881 29.5493 166.94 29.2024 166.94 28.8398V28.792H164.924ZM119.604 25.4961C119.157 25.4961 118.73 25.613 118.324 25.8477C117.93 26.0717 117.61 26.4135 117.364 26.8721C117.13 27.3199 117.013 27.8851 117.013 28.5674C117.013 29.2394 117.13 29.805 117.364 30.2637C117.61 30.7223 117.925 31.069 118.309 31.3037C118.703 31.5277 119.13 31.6396 119.589 31.6396C120.047 31.6396 120.474 31.5275 120.868 31.3037C121.263 31.0691 121.583 30.7222 121.828 30.2637C122.073 29.805 122.196 29.2394 122.196 28.5674C122.196 27.8849 122.073 27.32 121.828 26.8721C121.593 26.4135 121.279 26.0717 120.885 25.8477C120.501 25.613 120.074 25.4961 119.604 25.4961ZM200.433 25.4961C199.985 25.4961 199.558 25.613 199.152 25.8477C198.758 26.0717 198.438 26.4135 198.192 26.8721C197.958 27.3199 197.841 27.8851 197.841 28.5674C197.841 29.2394 197.958 29.805 198.192 30.2637C198.438 30.7223 198.753 31.069 199.137 31.3037C199.531 31.5277 199.958 31.6396 200.417 31.6396C200.875 31.6396 201.302 31.5275 201.696 31.3037C202.091 31.0691 202.411 30.7222 202.656 30.2637C202.902 29.805 203.024 29.2394 203.024 28.5674C203.024 27.8849 202.901 27.32 202.656 26.8721C202.422 26.4135 202.107 26.0717 201.713 25.8477C201.329 25.613 200.902 25.4961 200.433 25.4961ZM243.089 25.4961C242.641 25.4961 242.214 25.613 241.809 25.8477C241.414 26.0717 241.094 26.4135 240.849 26.8721C240.614 27.3199 240.497 27.8851 240.497 28.5674C240.497 29.2394 240.614 29.805 240.849 30.2637C241.094 30.7223 241.409 31.069 241.793 31.3037C242.188 31.5277 242.615 31.6396 243.073 31.6396C243.532 31.6396 243.958 31.5275 244.353 31.3037C244.747 31.0691 245.067 30.7222 245.312 30.2637C245.558 29.805 245.681 29.2394 245.681 28.5674C245.681 27.8849 245.558 27.32 245.312 26.8721C245.078 26.4135 244.764 26.0717 244.369 25.8477C243.985 25.613 243.558 25.4961 243.089 25.4961ZM280.089 25.4961C279.641 25.4961 279.214 25.613 278.809 25.8477C278.414 26.0717 278.094 26.4135 277.849 26.8721C277.614 27.3199 277.497 27.8851 277.497 28.5674C277.497 29.2394 277.614 29.805 277.849 30.2637C278.094 30.7223 278.409 31.069 278.793 31.3037C279.188 31.5277 279.615 31.6396 280.073 31.6396C280.532 31.6396 280.958 31.5275 281.353 31.3037C281.747 31.0691 282.067 30.7222 282.312 30.2637C282.558 29.805 282.681 29.2394 282.681 28.5674C282.681 27.8849 282.558 27.32 282.312 26.8721C282.078 26.4135 281.764 26.0717 281.369 25.8477C280.985 25.613 280.558 25.4961 280.089 25.4961ZM71.7549 25.5117C71.2219 25.5118 70.7528 25.6397 70.3477 25.8955C69.9423 26.1515 69.6273 26.5091 69.4033 26.9678C69.1794 27.4264 69.0674 27.9595 69.0674 28.5674C69.0674 29.186 69.1793 29.7249 69.4033 30.1836C69.6273 30.6316 69.9423 30.9833 70.3477 31.2393C70.7529 31.4951 71.2218 31.624 71.7549 31.624C72.2775 31.624 72.7421 31.4953 73.1475 31.2393C73.5526 30.9833 73.8669 30.6314 74.0908 30.1836C74.3255 29.7249 74.4434 29.1861 74.4434 28.5674C74.4433 27.9595 74.3255 27.4264 74.0908 26.9678C73.8668 26.5092 73.5527 26.1515 73.1475 25.8955C72.7421 25.6395 72.2775 25.5117 71.7549 25.5117ZM96.2471 25.5117C95.7246 25.5117 95.2607 25.6397 94.8555 25.8955C94.4501 26.1515 94.1351 26.5091 93.9111 26.9678C93.6872 27.4264 93.5752 27.9595 93.5752 28.5674C93.5752 29.1861 93.6871 29.7249 93.9111 30.1836C94.1351 30.6316 94.4501 30.9833 94.8555 31.2393C95.2608 31.4952 95.7245 31.624 96.2471 31.624C96.7804 31.624 97.2499 31.4953 97.6553 31.2393C98.0604 30.9833 98.3747 30.6314 98.5986 30.1836C98.8226 29.7249 98.9346 29.1861 98.9346 28.5674C98.9345 27.9595 98.8226 27.4264 98.5986 26.9678C98.3747 26.5092 98.0605 26.1515 97.6553 25.8955C97.2499 25.6395 96.7804 25.5117 96.2471 25.5117ZM132.731 25.5117C132.209 25.5117 131.745 25.6397 131.34 25.8955C130.935 26.1515 130.62 26.5091 130.396 26.9678C130.172 27.4264 130.06 27.9595 130.06 28.5674C130.06 29.1861 130.172 29.7249 130.396 30.1836C130.62 30.6316 130.935 30.9833 131.34 31.2393C131.745 31.4952 132.209 31.624 132.731 31.624C133.265 31.624 133.734 31.4953 134.14 31.2393C134.545 30.9833 134.859 30.6314 135.083 30.1836C135.307 29.7249 135.419 29.1861 135.419 28.5674C135.419 27.9595 135.307 27.4264 135.083 26.9678C134.859 26.5092 134.545 26.1515 134.14 25.8955C133.734 25.6395 133.265 25.5117 132.731 25.5117ZM219.185 25.5117C218.662 25.5117 218.198 25.6397 217.793 25.8955C217.388 26.1515 217.073 26.5091 216.849 26.9678C216.625 27.4264 216.513 27.9595 216.513 28.5674C216.513 29.1861 216.625 29.7249 216.849 30.1836C217.073 30.6316 217.388 30.9833 217.793 31.2393C218.198 31.4952 218.662 31.624 219.185 31.624C219.718 31.624 220.187 31.4953 220.593 31.2393C220.998 30.9833 221.312 30.6314 221.536 30.1836C221.76 29.7249 221.872 29.1861 221.872 28.5674C221.872 27.9595 221.76 27.4264 221.536 26.9678C221.312 26.5092 220.998 26.1515 220.593 25.8955C220.187 25.6395 219.718 25.5117 219.185 25.5117ZM86.9775 25.4795C86.5189 25.4795 86.0919 25.5865 85.6973 25.7998C85.3133 26.0025 85.0042 26.3066 84.7695 26.7119C84.5849 27.0225 84.4739 27.3959 84.4346 27.832H89.4092C89.3772 27.096 89.1315 26.5195 88.6729 26.1035C88.225 25.6877 87.66 25.4795 86.9775 25.4795ZM41.1182 25.4795C40.6595 25.4795 40.2326 25.5865 39.8379 25.7998C39.4539 26.0025 39.1448 26.3066 38.9102 26.7119C38.7255 27.0225 38.6145 27.3959 38.5752 27.832H43.5498C43.5178 27.096 43.2721 26.5195 42.8135 26.1035C42.3656 25.6877 41.8006 25.4795 41.1182 25.4795ZM19.3037 21C19.5597 21 19.7786 21.0852 19.96 21.2559C20.1411 21.4158 20.2314 21.629 20.2314 21.8955C20.2314 22.1621 20.1412 22.3861 19.96 22.5674C19.7786 22.7381 19.5597 22.8232 19.3037 22.8232C19.0371 22.8232 18.8132 22.738 18.6318 22.5674C18.4612 22.3861 18.376 22.1621 18.376 21.8955C18.376 21.6289 18.4613 21.4158 18.6318 21.2559C18.8132 21.0852 19.0371 21 19.3037 21ZM171.163 21C171.419 21 171.638 21.0852 171.819 21.2559C172.001 21.4158 172.091 21.629 172.091 21.8955C172.091 22.1621 172.001 22.3861 171.819 22.5674C171.638 22.7381 171.419 22.8232 171.163 22.8232C170.896 22.8232 170.673 22.738 170.491 22.5674C170.321 22.3861 170.235 22.1621 170.235 21.8955C170.235 21.6289 170.321 21.4158 170.491 21.2559C170.673 21.0852 170.896 21 171.163 21ZM226.304 21C226.56 21 226.779 21.0852 226.96 21.2559C227.141 21.4158 227.231 21.629 227.231 21.8955C227.231 22.1621 227.141 22.3861 226.96 22.5674C226.779 22.7381 226.56 22.8232 226.304 22.8232C226.037 22.8232 225.813 22.738 225.632 22.5674C225.461 22.3861 225.376 22.1621 225.376 21.8955C225.376 21.6289 225.461 21.4158 225.632 21.2559C225.813 21.0852 226.037 21 226.304 21ZM236.413 21C236.669 21 236.888 21.0852 237.069 21.2559C237.251 21.4158 237.341 21.629 237.341 21.8955C237.341 22.1621 237.251 22.3861 237.069 22.5674C236.888 22.7381 236.669 22.8232 236.413 22.8232C236.146 22.8232 235.923 22.738 235.741 22.5674C235.571 22.3861 235.485 22.1621 235.485 21.8955C235.485 21.6289 235.571 21.4158 235.741 21.2559C235.923 21.0852 236.146 21 236.413 21ZM63.04 3.34375C63.8292 3.34375 64.512 3.53017 65.0879 3.90332C65.6746 4.27665 66.1282 4.78383 66.4482 5.42383C66.7789 6.05313 66.9443 6.77338 66.9443 7.58398C66.9443 8.3945 66.7789 9.11986 66.4482 9.75977C66.1282 10.389 65.6745 10.8854 65.0879 11.248C64.5014 11.6105 63.8135 11.792 63.0244 11.792C62.3737 11.792 61.7972 11.6583 61.2959 11.3916C60.8054 11.1249 60.4268 10.7514 60.1602 10.2715V15.1191H58.8164V3.53516H60.0322L60.1445 4.84766C60.3151 4.59183 60.5334 4.3518 60.7998 4.12793C61.0665 3.89326 61.3874 3.70605 61.7607 3.56738C62.1339 3.4182 62.5603 3.34378 63.04 3.34375ZM73.0557 3.34375C73.8448 3.34375 74.5276 3.53017 75.1035 3.90332C75.6902 4.27665 76.1439 4.78383 76.4639 5.42383C76.7945 6.05313 76.96 6.77338 76.96 7.58398C76.9599 8.3945 76.7945 9.11986 76.4639 9.75977C76.1439 10.389 75.6901 10.8854 75.1035 11.248C74.517 11.6105 73.8291 11.792 73.04 11.792C72.3894 11.792 71.8129 11.6583 71.3115 11.3916C70.821 11.1249 70.4424 10.7514 70.1758 10.2715V15.1191H68.832V3.53516H70.0479L70.1602 4.84766C70.3307 4.59183 70.549 4.3518 70.8154 4.12793C71.0821 3.89326 71.403 3.70605 71.7764 3.56738C72.1495 3.4182 72.576 3.34378 73.0557 3.34375ZM85.7061 9.69531L88.458 3.53516H89.8496L84.6982 15.1191H83.29L85.2578 10.7031H84.7939L81.626 3.53516H83.082L85.7061 9.69531ZM171.274 3.34375C172.064 3.34375 172.746 3.53017 173.322 3.90332C173.909 4.27665 174.363 4.78383 174.683 5.42383C175.013 6.05313 175.179 6.77338 175.179 7.58398C175.179 8.3945 175.013 9.11986 174.683 9.75977C174.363 10.389 173.909 10.8854 173.322 11.248C172.736 11.6105 172.048 11.792 171.259 11.792C170.608 11.792 170.032 11.6583 169.53 11.3916C169.04 11.1249 168.661 10.7514 168.395 10.2715V15.1191H167.051V3.53516H168.267L168.379 4.84766C168.549 4.59183 168.768 4.3518 169.034 4.12793C169.301 3.89326 169.622 3.70605 169.995 3.56738C170.368 3.4182 170.795 3.34378 171.274 3.34375ZM11.9951 3.34375C12.7631 3.34375 13.4407 3.52007 14.0273 3.87207C14.6245 4.2134 15.0943 4.70387 15.4355 5.34375C15.7874 5.97297 15.9629 6.71427 15.9629 7.56738C15.9629 8.42065 15.7875 9.16765 15.4355 9.80762C15.0835 10.437 14.6081 10.9273 14.0107 11.2793C13.4135 11.6206 12.7308 11.792 11.9629 11.792C11.2163 11.792 10.5445 11.6206 9.94727 11.2793C9.34996 10.9273 8.88038 10.4369 8.53906 9.80762C8.19779 9.16772 8.02739 8.42648 8.02734 7.58398C8.02734 6.72005 8.19778 5.97305 8.53906 5.34375C8.89098 4.70389 9.36575 4.21339 9.96289 3.87207C10.5709 3.52008 11.2485 3.34376 11.9951 3.34375ZM21.4795 3.34375C22.2475 3.34375 22.9251 3.52007 23.5117 3.87207C24.1089 4.2134 24.5787 4.70387 24.9199 5.34375C25.2718 5.97297 25.4472 6.71427 25.4473 7.56738C25.4473 8.42065 25.2719 9.16765 24.9199 9.80762C24.5679 10.437 24.0925 10.9273 23.4951 11.2793C22.8978 11.6206 22.2152 11.792 21.4473 11.792C20.7007 11.792 20.0289 11.6206 19.4316 11.2793C18.8343 10.9273 18.3648 10.4369 18.0234 9.80762C17.6822 9.16772 17.5118 8.42648 17.5117 7.58398C17.5117 6.72005 17.6822 5.97305 18.0234 5.34375C18.3754 4.70389 18.8501 4.21339 19.4473 3.87207C20.0553 3.52008 20.7328 3.34376 21.4795 3.34375ZM35.124 11.5996H33.9082L33.7959 10.2715C33.6252 10.5382 33.4063 10.7888 33.1396 11.0234C32.873 11.2474 32.553 11.4347 32.1797 11.584C31.8064 11.7226 31.3743 11.792 30.8838 11.792C30.1053 11.792 29.4225 11.6106 28.8359 11.248C28.2493 10.8747 27.7956 10.3675 27.4756 9.72754C27.1557 9.08762 26.9961 8.36229 26.9961 7.55176C26.9961 6.74115 27.1556 6.0209 27.4756 5.3916C27.7956 4.75161 28.2493 4.25036 28.8359 3.8877C29.4333 3.52503 30.1217 3.34375 30.9004 3.34375C31.5614 3.34381 32.1374 3.47662 32.6279 3.74316C33.1292 4.00981 33.5136 4.38333 33.7803 4.86328V0.0800781H35.124V11.5996ZM44.4287 3.34375C45.2927 3.34375 45.9921 3.55177 46.5254 3.96777C47.0585 4.38372 47.3727 4.9863 47.4688 5.77539H46.1416C46.0883 5.37026 45.9117 5.05599 45.6133 4.83203C45.3253 4.59736 44.9251 4.47949 44.4131 4.47949C43.9118 4.4795 43.5274 4.58055 43.2607 4.7832C43.0048 4.98586 42.877 5.25334 42.877 5.58398C42.877 5.79702 42.9466 5.9887 43.085 6.15918C43.2343 6.31918 43.4483 6.45786 43.7256 6.5752C44.0135 6.69249 44.3654 6.78863 44.7812 6.86328C45.3146 6.95928 45.8 7.08805 46.2373 7.24805C46.6745 7.40805 47.0264 7.64784 47.293 7.96777C47.5703 8.27711 47.709 8.7199 47.709 9.2959C47.7089 9.79705 47.5811 10.2342 47.3252 10.6074C47.0799 10.9806 46.728 11.274 46.2695 11.4873C45.8109 11.69 45.2719 11.792 44.6533 11.792C43.9815 11.792 43.3948 11.6799 42.8936 11.4561C42.4029 11.2321 42.0077 10.922 41.709 10.5273C41.4211 10.1221 41.2456 9.6474 41.1816 9.10352H42.5576C42.611 9.38085 42.7229 9.6374 42.8936 9.87207C43.0641 10.1065 43.2934 10.2981 43.5811 10.4473C43.8797 10.5859 44.2424 10.6552 44.6689 10.6553C45.042 10.6553 45.3514 10.6026 45.5967 10.4961C45.842 10.3788 46.0243 10.2233 46.1416 10.0312C46.2694 9.83938 46.333 9.63105 46.333 9.40723C46.3329 9.07675 46.2527 8.82587 46.0928 8.65527C45.9434 8.48479 45.7193 8.35179 45.4209 8.25586C45.1223 8.14922 44.7596 8.05805 44.333 7.9834C43.9811 7.9194 43.6342 7.83419 43.293 7.72754C42.9517 7.62088 42.6475 7.48216 42.3809 7.31152C42.1143 7.13022 41.9012 6.91119 41.7412 6.65527C41.592 6.39938 41.5176 6.085 41.5176 5.71191C41.5176 5.2534 41.6346 4.84801 41.8691 4.49609C42.1038 4.13346 42.4397 3.85012 42.877 3.64746C43.3248 3.44485 43.8422 3.3438 44.4287 3.34375ZM50.8447 8.22363C50.8447 9.02337 51.0203 9.62592 51.3721 10.0312C51.7241 10.4366 52.2204 10.6396 52.8604 10.6396C53.3083 10.6396 53.7135 10.5326 54.0762 10.3193C54.4388 10.0954 54.7221 9.78124 54.9248 9.37598C55.1381 8.95998 55.2441 8.4528 55.2441 7.85547V3.53516H56.5889V11.5996H55.3721L55.292 10.1914C55.0467 10.6927 54.6841 11.088 54.2041 11.376C53.7242 11.6532 53.1801 11.792 52.5723 11.792C51.9537 11.792 51.4097 11.6691 50.9404 11.4238C50.4818 11.1785 50.1242 10.7999 49.8682 10.2881C49.6228 9.77609 49.5 9.13519 49.5 8.36719V3.53516H50.8447V8.22363ZM99.1826 3.34375C100.143 3.34375 100.943 3.59437 101.583 4.0957C102.223 4.58635 102.628 5.24819 102.799 6.08008H101.423C101.316 5.57874 101.055 5.18847 100.639 4.91113C100.223 4.63395 99.7321 4.49615 99.167 4.49609C98.7083 4.49609 98.2814 4.613 97.8867 4.84766C97.4921 5.07166 97.177 5.4134 96.9424 5.87207C96.7079 6.3306 96.5908 6.89572 96.5908 7.56738C96.5908 8.06856 96.6602 8.51656 96.7988 8.91113C96.9375 9.29513 97.1237 9.61607 97.3584 9.87207C97.593 10.128 97.8655 10.3252 98.1748 10.4639C98.4947 10.5918 98.8257 10.6553 99.167 10.6553C99.5509 10.6552 99.8978 10.5968 100.207 10.4795C100.516 10.3516 100.777 10.165 100.99 9.91992C101.204 9.67459 101.348 9.38633 101.423 9.05566H102.799C102.628 9.86632 102.217 10.528 101.566 11.04C100.926 11.5412 100.132 11.792 99.1826 11.792C98.4253 11.792 97.7427 11.6156 97.1348 11.2637C96.5375 10.9117 96.0679 10.4212 95.7266 9.79199C95.3853 9.15209 95.2149 8.41583 95.2148 7.58398C95.2148 6.73065 95.3852 5.98871 95.7266 5.35938C96.0679 4.73011 96.5375 4.23967 97.1348 3.8877C97.7427 3.52505 98.4253 3.34376 99.1826 3.34375ZM117.19 3.34375C117.937 3.3438 118.555 3.4825 119.046 3.75977C119.547 4.02642 119.921 4.40488 120.166 4.89551C120.411 5.37546 120.534 5.94617 120.534 6.60742V11.5996H119.334L119.254 10.1758C119.147 10.3997 119.008 10.6128 118.838 10.8154C118.678 11.0074 118.486 11.1778 118.262 11.3271C118.038 11.4658 117.782 11.5787 117.494 11.6641C117.217 11.7494 116.897 11.792 116.534 11.792C115.884 11.792 115.34 11.6799 114.902 11.4561C114.465 11.2214 114.139 10.9172 113.926 10.5439C113.712 10.16 113.606 9.74379 113.606 9.2959C113.606 8.7519 113.745 8.29325 114.022 7.91992C114.31 7.53601 114.71 7.24766 115.222 7.05566C115.744 6.853 116.358 6.75195 117.062 6.75195H119.19C119.19 6.25077 119.11 5.83452 118.95 5.50391C118.801 5.16261 118.577 4.90602 118.278 4.73535C117.99 4.56474 117.628 4.47954 117.19 4.47949C116.679 4.47949 116.236 4.60743 115.862 4.86328C115.489 5.11928 115.259 5.49867 115.174 6H113.798C113.862 5.424 114.054 4.94357 114.374 4.55957C114.705 4.16495 115.121 3.86673 115.622 3.66406C116.123 3.45073 116.646 3.34375 117.19 3.34375ZM138.46 3.34375C139.324 3.34375 140.023 3.55177 140.557 3.96777C141.09 4.38372 141.404 4.9863 141.5 5.77539H140.173C140.12 5.37026 139.943 5.05599 139.645 4.83203C139.357 4.59736 138.956 4.47949 138.444 4.47949C137.943 4.4795 137.559 4.58055 137.292 4.7832C137.036 4.98586 136.908 5.25334 136.908 5.58398C136.908 5.79702 136.978 5.9887 137.116 6.15918C137.266 6.31918 137.48 6.45786 137.757 6.5752C138.045 6.69249 138.397 6.78863 138.812 6.86328C139.346 6.95928 139.831 7.08805 140.269 7.24805C140.706 7.40805 141.058 7.64784 141.324 7.96777C141.602 8.27711 141.74 8.7199 141.74 9.2959C141.74 9.79705 141.612 10.2342 141.356 10.6074C141.111 10.9806 140.759 11.274 140.301 11.4873C139.842 11.69 139.303 11.792 138.685 11.792C138.013 11.792 137.426 11.6799 136.925 11.4561C136.434 11.2321 136.039 10.922 135.74 10.5273C135.452 10.1221 135.277 9.6474 135.213 9.10352H136.589C136.642 9.38085 136.754 9.6374 136.925 9.87207C137.095 10.1065 137.325 10.2981 137.612 10.4473C137.911 10.5859 138.274 10.6552 138.7 10.6553C139.073 10.6553 139.383 10.6026 139.628 10.4961C139.873 10.3788 140.056 10.2233 140.173 10.0312C140.301 9.83938 140.364 9.63105 140.364 9.40723C140.364 9.07675 140.284 8.82587 140.124 8.65527C139.975 8.48479 139.751 8.35179 139.452 8.25586C139.154 8.14922 138.791 8.05805 138.364 7.9834C138.012 7.9194 137.665 7.83419 137.324 7.72754C136.983 7.62088 136.679 7.48216 136.412 7.31152C136.146 7.13022 135.932 6.91119 135.772 6.65527C135.623 6.39938 135.549 6.085 135.549 5.71191C135.549 5.2534 135.666 4.84801 135.9 4.49609C136.135 4.13346 136.471 3.85012 136.908 3.64746C137.356 3.44485 137.873 3.3438 138.46 3.34375ZM155.718 11.5996H154.502L154.39 10.2715C154.219 10.5382 154 10.7888 153.733 11.0234C153.467 11.2474 153.147 11.4347 152.773 11.584C152.4 11.7226 151.968 11.792 151.478 11.792C150.699 11.792 150.016 11.6106 149.43 11.248C148.843 10.8747 148.389 10.3675 148.069 9.72754C147.749 9.08762 147.59 8.36229 147.59 7.55176C147.59 6.74115 147.749 6.0209 148.069 5.3916C148.389 4.75161 148.843 4.25036 149.43 3.8877C150.027 3.52503 150.715 3.34375 151.494 3.34375C152.155 3.34381 152.731 3.47662 153.222 3.74316C153.723 4.00981 154.107 4.38333 154.374 4.86328V0.0800781H155.718V11.5996ZM161.525 3.34375C162.315 3.34382 162.982 3.52014 163.525 3.87207C164.08 4.22403 164.501 4.68786 164.789 5.26367C165.088 5.82898 165.237 6.45312 165.237 7.13574V7.47168C165.237 7.589 165.231 7.72277 165.221 7.87207H158.938C158.962 8.43539 159.078 8.91518 159.285 9.31152C159.53 9.75934 159.845 10.0953 160.229 10.3193C160.623 10.5433 161.045 10.6553 161.493 10.6553C162.058 10.6552 162.522 10.5332 162.885 10.2881C163.258 10.0321 163.525 9.69026 163.685 9.26367H165.013C164.885 9.74363 164.661 10.1756 164.341 10.5596C164.021 10.9436 163.621 11.2477 163.141 11.4717C162.671 11.6849 162.122 11.792 161.493 11.792C160.736 11.792 160.063 11.6157 159.477 11.2637C158.901 10.9118 158.448 10.421 158.117 9.79199C157.787 9.15199 157.621 8.41005 157.621 7.56738C157.621 6.71426 157.781 5.97298 158.101 5.34375C158.431 4.71458 158.89 4.22405 159.477 3.87207C160.074 3.52007 160.757 3.34375 161.525 3.34375ZM180.635 3.34375C181.424 3.34382 182.091 3.52014 182.635 3.87207C183.189 4.22403 183.611 4.68786 183.898 5.26367C184.197 5.82898 184.347 6.45312 184.347 7.13574V7.47168C184.347 7.589 184.341 7.72277 184.33 7.87207H178.048C178.072 8.43539 178.187 8.91518 178.395 9.31152C178.64 9.75934 178.954 10.0953 179.338 10.3193C179.733 10.5433 180.155 10.6553 180.603 10.6553C181.168 10.6552 181.632 10.5332 181.994 10.2881C182.367 10.0321 182.634 9.69026 182.794 9.26367H184.122C183.994 9.74363 183.77 10.1756 183.45 10.5596C183.13 10.9436 182.73 11.2477 182.25 11.4717C181.781 11.6849 181.232 11.792 180.603 11.792C179.845 11.792 179.173 11.6157 178.586 11.2637C178.01 10.9118 177.557 10.421 177.227 9.79199C176.896 9.15199 176.73 8.41005 176.73 7.56738C176.73 6.71426 176.89 5.97298 177.21 5.34375C177.541 4.71458 177.999 4.22405 178.586 3.87207C179.183 3.52007 179.867 3.34375 180.635 3.34375ZM203.14 11.5996H201.924L201.812 10.2715C201.641 10.5382 201.422 10.7888 201.155 11.0234C200.889 11.2474 200.569 11.4347 200.195 11.584C199.822 11.7226 199.39 11.792 198.899 11.792C198.121 11.792 197.438 11.6106 196.852 11.248C196.265 10.8747 195.811 10.3675 195.491 9.72754C195.171 9.08762 195.012 8.36229 195.012 7.55176C195.012 6.74115 195.171 6.0209 195.491 5.3916C195.811 4.75161 196.265 4.25036 196.852 3.8877C197.449 3.52503 198.137 3.34375 198.916 3.34375C199.577 3.34381 200.153 3.47662 200.644 3.74316C201.145 4.00981 201.529 4.38333 201.796 4.86328V0.0800781H203.14V11.5996ZM213.261 3.34375C214.029 3.34375 214.706 3.52007 215.293 3.87207C215.89 4.2134 216.36 4.70387 216.701 5.34375C217.053 5.97297 217.228 6.71427 217.229 7.56738C217.229 8.42065 217.053 9.16765 216.701 9.80762C216.349 10.437 215.874 10.9273 215.276 11.2793C214.679 11.6206 213.996 11.792 213.229 11.792C212.482 11.792 211.81 11.6206 211.213 11.2793C210.616 10.9273 210.146 10.4369 209.805 9.80762C209.463 9.16772 209.293 8.42648 209.293 7.58398C209.293 6.72005 209.463 5.97305 209.805 5.34375C210.157 4.70389 210.631 4.21339 211.229 3.87207C211.837 3.52008 212.514 3.34376 213.261 3.34375ZM7.04004 1.50391H1.56836V5.43945H6.22461V6.52734H1.56836V11.5996H0.224609V0.399414H7.04004V1.50391ZM80.1914 11.5996H78.8477V0.0800781H80.1914V11.5996ZM106.051 4.89551C106.317 4.41554 106.691 4.03709 107.171 3.75977C107.661 3.4825 108.195 3.34382 108.771 3.34375C109.389 3.34375 109.928 3.47161 110.387 3.72754C110.845 3.97286 111.198 4.35133 111.443 4.86328C111.689 5.37528 111.811 6.02114 111.811 6.7998V11.5996H110.483V6.94336C110.483 6.13282 110.312 5.52443 109.971 5.11914C109.629 4.7035 109.134 4.4962 108.483 4.49609C108.025 4.49609 107.609 4.60809 107.235 4.83203C106.873 5.05603 106.584 5.37599 106.371 5.79199C106.158 6.20785 106.051 6.71946 106.051 7.32715V11.5996H104.707V0.0800781H106.051V4.89551ZM124.085 11.5996H122.741V3.53516H124.085V11.5996ZM130.457 3.34375C131.086 3.34377 131.63 3.47158 132.089 3.72754C132.547 3.97284 132.905 4.35137 133.161 4.86328C133.417 5.36453 133.545 6.00472 133.545 6.7832V11.5996H132.201V6.92773C132.201 6.11714 132.02 5.50885 131.657 5.10352C131.305 4.69827 130.804 4.49618 130.153 4.49609C129.705 4.49609 129.305 4.60803 128.953 4.83203C128.601 5.04536 128.318 5.3594 128.104 5.77539C127.902 6.18072 127.801 6.6879 127.801 7.2959V11.5996H126.457V3.53516H127.673L127.737 4.94336C127.993 4.4422 128.356 4.05266 128.825 3.77539C129.305 3.48751 129.849 3.34375 130.457 3.34375ZM190.16 3.34375C190.789 3.34377 191.333 3.47158 191.792 3.72754C192.251 3.97284 192.608 4.35137 192.864 4.86328C193.12 5.36453 193.248 6.00472 193.248 6.7832V11.5996H191.904V6.92773C191.904 6.11714 191.723 5.50885 191.36 5.10352C191.008 4.69827 190.507 4.49618 189.856 4.49609C189.408 4.49609 189.008 4.60803 188.656 4.83203C188.304 5.04536 188.021 5.3594 187.808 5.77539C187.605 6.18072 187.504 6.6879 187.504 7.2959V11.5996H186.16V3.53516H187.376L187.44 4.94336C187.696 4.4422 188.059 4.05266 188.528 3.77539C189.008 3.48751 189.552 3.34375 190.16 3.34375ZM223.113 3.34375C223.743 3.34377 224.286 3.47158 224.745 3.72754C225.204 3.97284 225.561 4.35137 225.817 4.86328C226.073 5.36453 226.201 6.00472 226.201 6.7832V11.5996H224.857V6.92773C224.857 6.11714 224.676 5.50885 224.313 5.10352C223.962 4.69827 223.46 4.49618 222.81 4.49609C222.362 4.49609 221.961 4.60803 221.609 4.83203C221.257 5.04536 220.974 5.3594 220.761 5.77539C220.558 6.18072 220.457 6.6879 220.457 7.2959V11.5996H219.113V3.53516H220.329L220.394 4.94336C220.65 4.4422 221.012 4.05266 221.481 3.77539C221.961 3.48751 222.505 3.34375 223.113 3.34375ZM117.174 7.79199C116.651 7.79201 116.23 7.85546 115.91 7.9834C115.59 8.10073 115.36 8.27209 115.222 8.49609C115.083 8.70927 115.014 8.9544 115.014 9.23145C115.014 9.51938 115.078 9.7701 115.206 9.9834C115.345 10.1967 115.542 10.3622 115.798 10.4795C116.065 10.5968 116.38 10.6553 116.742 10.6553C117.115 10.6553 117.451 10.5809 117.75 10.4316C118.059 10.2717 118.321 10.0586 118.534 9.79199C118.747 9.51476 118.907 9.21041 119.014 8.87988C119.131 8.54929 119.19 8.20243 119.19 7.83984V7.79199H117.174ZM11.9951 4.49609C11.5471 4.4961 11.1202 4.613 10.7148 4.84766C10.3203 5.07166 10.0002 5.41351 9.75488 5.87207C9.52041 6.31994 9.40335 6.88506 9.40332 7.56738C9.40332 8.23935 9.52024 8.80502 9.75488 9.26367C10.0002 9.72234 10.3152 10.069 10.6992 10.3037C11.0939 10.5277 11.5209 10.6396 11.9795 10.6396C12.4379 10.6396 12.8643 10.5275 13.2588 10.3037C13.6534 10.0691 13.9734 9.72223 14.2188 9.26367C14.4641 8.80501 14.5869 8.23938 14.5869 7.56738C14.5869 6.88491 14.464 6.31999 14.2188 5.87207C13.9841 5.41348 13.67 5.07166 13.2754 4.84766C12.8914 4.61299 12.4645 4.49609 11.9951 4.49609ZM21.4795 4.49609C21.0315 4.4961 20.6045 4.613 20.1992 4.84766C19.8047 5.07166 19.4845 5.41351 19.2393 5.87207C19.0048 6.31994 18.8877 6.88506 18.8877 7.56738C18.8877 8.23935 19.0046 8.80502 19.2393 9.26367C19.4846 9.72234 19.7996 10.069 20.1836 10.3037C20.5782 10.5277 21.0052 10.6396 21.4639 10.6396C21.9223 10.6396 22.3487 10.5275 22.7432 10.3037C23.1378 10.0691 23.4578 9.72223 23.7031 9.26367C23.9485 8.80501 24.0713 8.23938 24.0713 7.56738C24.0713 6.88491 23.9484 6.31999 23.7031 5.87207C23.4685 5.41348 23.1543 5.07166 22.7598 4.84766C22.3758 4.61299 21.9488 4.49609 21.4795 4.49609ZM213.261 4.49609C212.813 4.4961 212.386 4.613 211.98 4.84766C211.586 5.07166 211.266 5.41351 211.021 5.87207C210.786 6.31994 210.669 6.88506 210.669 7.56738C210.669 8.23935 210.786 8.80502 211.021 9.26367C211.266 9.72234 211.581 10.069 211.965 10.3037C212.359 10.5277 212.786 10.6396 213.245 10.6396C213.704 10.6396 214.13 10.5275 214.524 10.3037C214.919 10.0691 215.239 9.72223 215.484 9.26367C215.73 8.80501 215.853 8.23938 215.853 7.56738C215.853 6.88491 215.73 6.31999 215.484 5.87207C215.25 5.41348 214.936 5.07166 214.541 4.84766C214.157 4.61299 213.73 4.49609 213.261 4.49609ZM31.0439 4.51172C30.5214 4.51172 30.0576 4.63966 29.6523 4.89551C29.247 5.15151 28.932 5.50911 28.708 5.96777C28.4841 6.42636 28.3721 6.95952 28.3721 7.56738C28.3721 8.18605 28.484 8.72493 28.708 9.18359C28.932 9.63158 29.247 9.98326 29.6523 10.2393C30.0576 10.4952 30.5213 10.624 31.0439 10.624C31.5773 10.624 32.0468 10.4953 32.4521 10.2393C32.8573 9.9833 33.1716 9.6314 33.3955 9.18359C33.6195 8.72493 33.7314 8.18605 33.7314 7.56738C33.7314 6.95948 33.6195 6.42638 33.3955 5.96777C33.1715 5.50917 32.8574 5.1515 32.4521 4.89551C32.0468 4.63951 31.5773 4.51172 31.0439 4.51172ZM62.8799 4.51172C62.3469 4.51178 61.8778 4.6397 61.4727 4.89551C61.0673 5.15151 60.7523 5.50911 60.5283 5.96777C60.3044 6.42636 60.1924 6.95953 60.1924 7.56738C60.1924 8.18605 60.3043 8.72493 60.5283 9.18359C60.7523 9.63159 61.0673 9.98326 61.4727 10.2393C61.8779 10.4951 62.3468 10.624 62.8799 10.624C63.4025 10.624 63.8671 10.4953 64.2725 10.2393C64.6776 9.98331 64.9919 9.63141 65.2158 9.18359C65.4505 8.72493 65.5684 8.18605 65.5684 7.56738C65.5683 6.95948 65.4505 6.42638 65.2158 5.96777C64.9918 5.50916 64.6777 5.15149 64.2725 4.89551C63.8671 4.63951 63.4025 4.51172 62.8799 4.51172ZM72.8955 4.51172C72.3625 4.51178 71.8934 4.6397 71.4883 4.89551C71.0829 5.15151 70.7679 5.50911 70.5439 5.96777C70.32 6.42636 70.208 6.95953 70.208 7.56738C70.208 8.18605 70.3199 8.72493 70.5439 9.18359C70.7679 9.63159 71.0829 9.98326 71.4883 10.2393C71.8935 10.4951 72.3624 10.624 72.8955 10.624C73.4182 10.624 73.8828 10.4953 74.2881 10.2393C74.6932 9.98331 75.0075 9.63141 75.2314 9.18359C75.4661 8.72493 75.584 8.18605 75.584 7.56738C75.584 6.95948 75.4661 6.42638 75.2314 5.96777C75.0075 5.50916 74.6934 5.15149 74.2881 4.89551C73.8828 4.63951 73.4182 4.51172 72.8955 4.51172ZM151.638 4.51172C151.115 4.51172 150.651 4.63966 150.246 4.89551C149.841 5.15151 149.526 5.50911 149.302 5.96777C149.078 6.42636 148.966 6.95952 148.966 7.56738C148.966 8.18605 149.078 8.72493 149.302 9.18359C149.526 9.63158 149.841 9.98326 150.246 10.2393C150.651 10.4952 151.115 10.624 151.638 10.624C152.171 10.624 152.641 10.4953 153.046 10.2393C153.451 9.9833 153.765 9.6314 153.989 9.18359C154.213 8.72493 154.325 8.18605 154.325 7.56738C154.325 6.95948 154.213 6.42638 153.989 5.96777C153.765 5.50917 153.451 5.1515 153.046 4.89551C152.641 4.63951 152.171 4.51172 151.638 4.51172ZM171.114 4.51172C170.581 4.51178 170.112 4.6397 169.707 4.89551C169.302 5.15151 168.987 5.50911 168.763 5.96777C168.539 6.42636 168.427 6.95953 168.427 7.56738C168.427 8.18605 168.539 8.72493 168.763 9.18359C168.987 9.63159 169.302 9.98326 169.707 10.2393C170.112 10.4951 170.581 10.624 171.114 10.624C171.637 10.624 172.102 10.4953 172.507 10.2393C172.912 9.98331 173.226 9.63141 173.45 9.18359C173.685 8.72493 173.803 8.18605 173.803 7.56738C173.803 6.95948 173.685 6.42638 173.45 5.96777C173.226 5.50916 172.912 5.15149 172.507 4.89551C172.102 4.63951 171.637 4.51172 171.114 4.51172ZM199.06 4.51172C198.537 4.51172 198.073 4.63966 197.668 4.89551C197.263 5.15151 196.948 5.50911 196.724 5.96777C196.5 6.42636 196.388 6.95952 196.388 7.56738C196.388 8.18605 196.5 8.72493 196.724 9.18359C196.948 9.63158 197.263 9.98326 197.668 10.2393C198.073 10.4952 198.537 10.624 199.06 10.624C199.593 10.624 200.062 10.4953 200.468 10.2393C200.873 9.9833 201.187 9.6314 201.411 9.18359C201.635 8.72493 201.747 8.18605 201.747 7.56738C201.747 6.95948 201.635 6.42638 201.411 5.96777C201.187 5.50917 200.873 5.1515 200.468 4.89551C200.062 4.63951 199.593 4.51172 199.06 4.51172ZM180.603 4.47949C180.144 4.47949 179.717 4.58647 179.322 4.7998C178.938 5.00247 178.629 5.30662 178.395 5.71191C178.21 6.02254 178.099 6.39587 178.06 6.83203H183.034C183.002 6.09603 182.757 5.51952 182.298 5.10352C181.85 4.68774 181.285 4.47954 180.603 4.47949ZM161.493 4.47949C161.035 4.47949 160.608 4.58647 160.213 4.7998C159.829 5.00247 159.52 5.30662 159.285 5.71191C159.1 6.02254 158.99 6.39587 158.95 6.83203H163.925C163.893 6.09603 163.647 5.51952 163.188 5.10352C162.741 4.68774 162.176 4.47954 161.493 4.47949ZM123.413 0C123.669 0 123.888 0.085193 124.069 0.255859C124.25 0.415818 124.341 0.628997 124.341 0.895508C124.341 1.16208 124.251 1.38608 124.069 1.56738C123.888 1.73805 123.669 1.82324 123.413 1.82324C123.146 1.82323 122.923 1.73803 122.741 1.56738C122.571 1.38607 122.485 1.16213 122.485 0.895508C122.485 0.628941 122.571 0.415829 122.741 0.255859C122.923 0.0852097 123.146 1.66868e-05 123.413 0Z" fill="white"/>
</svg>
