<svg width="746" height="539" viewBox="0 0 746 539" fill="none" xmlns="http://www.w3.org/2000/svg">
<path d="M746.433 0H292.106C209.399 3.84216 181.465 58.7301 174.345 65.8656C168.649 71.5739 56.9499 344.879 1.81244 480.819C-6.95113 526.925 18.2441 537.902 30.8418 539H574.731C606.279 538.561 654.698 459.961 668.939 431.42H146.959C188.586 303.531 241.715 298.042 243.906 297.493C245.659 297.054 461.534 297.31 569.253 297.493C597.735 293.102 639.362 219.003 649.221 189.364H246.097C268.006 119.656 287.724 97.7006 323.326 93.3096H663.462C684.932 94.6269 727.722 31.6521 746.433 0Z" fill="#B34B0C"/>
</svg>
