<svg width="1920" height="800" viewBox="0 0 1920 800" fill="none" xmlns="http://www.w3.org/2000/svg">
<path d="M1920 765.5L1920 753L1920 0L-6.99382e-05 0.000167852L-2.57897e-06 770.5L4.5 770.5L15 770.5L15 772L19 772L19 773.5L23 773.5L23 775L27 775L27 776.5L32.5 776.5L32.5 779.5L56 779.5L55.5 777L61 777L61 779L66.5 779L66.5 777L71 777L71 775L76 775L76 773L81 773L81 771L86 771L86 768.5L89.5 768.5L89.5 767.5L95 767.5L94.5 766L100 766L100 764.5L114.5 764.5L114.5 763L121.5 763L121.5 761.5L128.5 761.5L128.5 760L139 760L139 758.5L155 758.5L155 756.5L178.5 756.5L178.5 758L183.5 758L183.5 759.5L190.5 759.5L190.5 761L199 761L199 762.5L205 762.5L205 764L211 764L211 766.5L216.5 766.5L216.5 768L223 768L223 769.5L228 769.5L228 770.5L235 770.5L235 771.5L239.5 771.5L239.5 773L244 773L244 774.5L251 774.5L251 776.5L258 776.5L258.5 777.5L267 777.5L267 779L276 779L276 780.5L290.5 780.5L290.5 779L293.5 779L295.5 779L295.5 777.5L297.5 777.5L297.5 776L299 776.5L299 775L301 775L301 773.5L304.5 773.5L304.5 772L311.5 772L311.5 770.5L329.5 770.5L329.5 769L343 769L343 767L347 767.5L346.5 769L350.5 768.5L350.5 770L354.5 770L354.5 771.5L367.5 771.5L367.5 773.5L418.5 773.5L418.5 775.5L437 775.5L437 777.5L442 777.5L442 779L445 779L445 780.5L449.5 780.5L449.5 782L454 782L454.5 783L458 783L458 784.5L481 784.5L481 786L486 786L486 787L491.5 787L491.5 788.5L496.5 788.5L496.5 790L502 790L502 791.5L528.5 791.5L528.5 794L540.5 794L540.5 792.5L551.5 792.5L551.5 791L564 791L564 789.5L578 789.5L578 788L594.5 788L594.5 790L609 790L609 788.5L615.5 788.5L615.5 787L637 787L637 785.5L640.5 785L640.5 783.5L644 783.5L644 782L646 782L646 780.5L647.5 780.5L647.5 779L652.5 779L652.5 777.5L658.5 777.5L658 776L665 776.5L665 775L679.5 775L679.5 776.5L685 776.5L685 777.5L688.5 777.5L688.5 779L694 779L694 780.5L701 780.5L701 782L711.5 782L711.5 780.5L720.5 780.5L720.5 779L729.5 779L729 777.5L733 777.5L733 776L740 776L740 775L745 775L745 773.5L752 773.5L752 772L754.5 772.5L754.5 773.5L811 774L811 772.5L820 772.5L820 771L829 771L829 772.5L837.5 772.5L837.5 773.5L843.5 773.5L843.5 775L846.5 775L846.5 776.5L852 776.5L852 778L874 778L873.5 776.5L884 776L884 775L889.5 775L889.5 773L894.5 773L894.5 771L913.5 771L913.5 773L958.5 773L958.5 774.5L974.5 774.5L974.5 776L978.5 776L978.5 777.5L983.5 777.5L983.5 779L989.5 779L989.5 780.5L1002 780.5L1002 782L1009 782L1009 783.5L1016 783.5L1016 785L1021.5 785L1021.5 786L1024.5 786L1024.5 787.5L1030 787.5L1030 789L1035.5 789L1035.5 790L1040.5 790L1040.5 791.5L1047.5 791.5L1048 793L1068.5 793L1068.5 791L1074.5 791.5L1074.5 793L1099 793L1099 794L1103 794L1103 795.5L1106.5 795.5L1106.5 797L1108.5 797L1108.5 798L1112 798L1112 799.5L1125.5 799.5L1125.5 798L1141.5 798L1142 796.5L1165 797L1165 795.5L1177.5 795.5L1177.5 797L1184.5 797L1184.5 798L1193.5 798L1193.5 800L1202.5 800L1202.5 799L1209.5 799L1209.5 797L1232.5 797L1232.5 795.5L1241.5 795.5L1241.5 794L1248.5 794L1248.5 792.5L1255.5 792.5L1255.5 791L1261 791L1261 789.5L1268 789.5L1268 788L1275 788L1275 786.5L1282 786.5L1282 785.5L1289 785.5L1289 784L1294.5 784L1294.5 782.5L1309 782.5L1309 785.5L1334 785.5L1334 783.5L1338.5 783.5L1338.5 782L1344 782L1344 785L1353 785L1353 782.5L1364 782.5L1364 784L1379.65 784L1379.65 786.5L1396.5 786.5L1396.5 784.5L1400.5 784.5L1403.5 784.5L1403.5 783L1407 783L1407 781L1410.5 781L1410.5 779L1413.5 779L1413.5 777.5L1417.5 777.5L1417.5 775.5L1421 775.5L1421 774L1424.5 774L1424.5 772.5L1428 772.5L1428 770.5L1442.5 770.5L1442.5 772.5L1461.5 772.5L1461.5 771L1468.5 771L1468.5 770L1474 770L1474 768.5L1510 768.5L1510 769.5L1524 769.5L1524 771.5L1543.5 771.5L1543.5 770L1552.5 770L1552.5 768.5L1558 768.5L1558 767L1568.5 767L1568.5 765.5L1588 765.5L1588 767L1593.5 767L1593.5 768.5L1597 768.5L1597 770L1598.5 770L1598.5 771L1602.5 771L1602.5 772.5L1616.5 772.5L1616.5 771L1627 771L1627 770L1634.24 770L1634.24 768L1661 768L1661 769.5L1668 769.5L1668 771L1673.5 771L1673.5 772L1678.5 772L1678.5 773.5L1685.5 773.5L1685.5 775L1695 775L1704.5 775L1713.5 775L1713.5 778L1721.5 778L1738.5 778L1738.5 776.5L1740.5 776.5L1740.5 774.5L1743 774.5L1743 772.5L1745 772.5L1745 771L1768 771L1768 769.5L1773.5 769.5L1773.5 768L1784 768L1784 766L1794.5 766L1794.5 767.5L1799.5 767.5L1799.5 769L1803 769L1803 771L1824.5 771L1824.5 772.5L1829.5 772.5L1829.5 774L1835 774L1835 775L1839 775L1842.5 775L1842.5 777L1855 777L1855 775.5L1860.5 775.5L1860.5 774.5L1865 774.5L1865 772.5L1872.5 772.5L1872.5 771.5L1874.5 771.5L1874.5 772.5L1880.5 772.5L1880.5 770.5L1886.5 770.5L1886.5 769.5L1891 769.5L1891 768.5L1898.5 768.5L1898.5 767.5L1909.5 767.5L1909.5 765.5L1920 765.5Z" fill="#161616"/>
</svg>
