<svg width="19" height="19" viewBox="0 0 19 19" fill="none" xmlns="http://www.w3.org/2000/svg">
<path d="M17.4055 13.2667V15.7667C17.4064 15.9988 17.3589 16.2285 17.2659 16.4412C17.1729 16.6538 17.0365 16.8447 16.8655 17.0016C16.6945 17.1585 16.4926 17.278 16.2728 17.3523C16.0529 17.4267 15.8199 17.4543 15.5888 17.4334C13.0245 17.1548 10.5613 16.2785 8.39713 14.8751C6.38365 13.5956 4.67658 11.8885 3.39713 9.87506C1.98878 7.70106 1.11233 5.22589 0.838795 2.65006C0.817971 2.41962 0.845358 2.18736 0.919212 1.96808C0.993067 1.7488 1.11177 1.5473 1.26777 1.37641C1.42376 1.20552 1.61363 1.06898 1.82529 0.975495C2.03694 0.882006 2.26575 0.833612 2.49713 0.833394H4.99713C5.40155 0.829413 5.79362 0.972626 6.10026 1.23634C6.4069 1.50005 6.60719 1.86627 6.66379 2.26673C6.76931 3.06678 6.965 3.85233 7.24713 4.60839C7.35925 4.90666 7.38351 5.23082 7.31705 5.54246C7.25059 5.8541 7.09618 6.14015 6.87213 6.36673L5.8138 7.42506C7.00009 9.51135 8.72751 11.2388 10.8138 12.4251L11.8721 11.3667C12.0987 11.1427 12.3848 10.9883 12.6964 10.9218C13.008 10.8553 13.3322 10.8796 13.6305 10.9917C14.3865 11.2739 15.1721 11.4695 15.9721 11.5751C16.3769 11.6322 16.7466 11.8361 17.0109 12.148C17.2752 12.4599 17.4156 12.858 17.4055 13.2667Z" stroke="white" stroke-width="1.66667" stroke-linecap="round" stroke-linejoin="round"/>
</svg>
